<?xml version="1.0" encoding="utf-8"?>
<!-- Generator: Adobe Illustrator 25.2.1, SVG Export Plug-In . SVG Version: 6.00 Build 0)  -->
<svg version="1.1" id="Layer_1" xmlns="http://www.w3.org/2000/svg" xmlns:xlink="http://www.w3.org/1999/xlink" x="0px" y="0px"
	 width="100%" height="100%" viewBox="0 0 50 39.4" style="enable-background:new 0 0 50 39.4;" xml:space="preserve">
<path fill="#fff1e6" d="M49.6,20.7c-0.3,0.3-0.5,0.6-0.8,0.9c-0.9,1-2,2.2-3.3,3.5l2.6,2.5c0.3,0.3,0.5,0.7,0.5,1.1c0,0.4-0.1,0.9-0.4,1.2
	c-0.3,0.3-0.7,0.5-1.1,0.5c-0.4,0-0.9-0.2-1.2-0.5L43,27.3c-1.8,1.5-3.7,2.9-5.8,4l1.6,3.3c0.3,0.5,0.2,1.1-0.1,1.6
	c-0.3,0.5-0.9,0.8-1.5,0.7c-0.6,0-1.1-0.4-1.3-0.9l-1.6-3.3v0c-2.4,0.9-5,1.5-7.5,1.7v3.5c0,0.6-0.3,1.1-0.8,1.4
	c-0.5,0.3-1.1,0.3-1.6,0c-0.5-0.3-0.8-0.8-0.8-1.4v-3.5c-2.6-0.2-5.1-0.7-7.5-1.7L14.2,36l0,0c-0.3,0.5-0.8,0.9-1.3,0.9
	c-0.6,0-1.1-0.2-1.5-0.7c-0.3-0.5-0.4-1.1-0.1-1.6l1.6-3.3c-2.1-1.1-4-2.5-5.8-4L4.3,30c-0.4,0.4-1,0.5-1.6,0.4
	c-0.6-0.2-1-0.6-1.1-1.2c-0.1-0.6,0-1.1,0.4-1.6l2.6-2.5c-1.3-1.3-2.4-2.5-3.3-3.5C1,21.3,0.7,21,0.5,20.7C0.2,20.4,0,20,0,19.6
	c0-0.4,0.2-0.9,0.5-1.2C0.8,18.1,1.3,18,1.7,18c0.4,0,0.9,0.2,1.1,0.5c0.3,0.3,0.6,0.6,0.9,0.9c4,4.4,10.8,11.7,21.3,11.7
	s17.3-7.3,21.3-11.7c0.3-0.3,0.6-0.6,0.9-0.9c0.4-0.4,1-0.6,1.5-0.4c0.6,0.1,1,0.6,1.2,1.1C50.1,19.7,50,20.3,49.6,20.7L49.6,20.7z"
	/>
</svg>
