<?xml version="1.0" encoding="utf-8"?>
<!-- Generator: Adobe Illustrator 25.2.1, SVG Export Plug-In . SVG Version: 6.00 Build 0)  -->
<svg version="1.1" id="Layer_1" xmlns="http://www.w3.org/2000/svg" xmlns:xlink="http://www.w3.org/1999/xlink" x="0px" y="0px"
	 width="100%" height="100%" viewBox="0 0 50 39.4" style="enable-background:new 0 0 50 39.4;" xml:space="preserve">
<path fill="#fff1e6" d="M50,19.9c0-0.1,0-0.1,0-0.2c0,0,0,0,0,0c0,0,0-0.1,0-0.1c0-0.4-0.2-0.8-0.5-1.1c-0.3-0.3-0.5-0.6-0.8-0.9
	c-0.9-1-2-2.2-3.3-3.5l2.6-2.5c0.4-0.4,0.6-1,0.4-1.6c-0.1-0.6-0.6-1-1.1-1.2c-0.6-0.2-1.1,0-1.6,0.4l-2.8,2.6
	c-1.8-1.5-3.7-2.9-5.8-4l1.6-3.3C39,4.1,38.9,3.5,38.6,3c-0.3-0.5-0.9-0.8-1.5-0.7c-0.6,0-1.1,0.4-1.3,0.9l0,0l-1.6,3.3
	c-2.4-0.9-5-1.5-7.5-1.7V1.4c0-0.6-0.3-1.1-0.8-1.4c-0.5-0.3-1.1-0.3-1.6,0s-0.8,0.8-0.8,1.4v3.5c-2.6,0.2-5.1,0.7-7.5,1.7v0
	l-1.6-3.3c-0.3-0.5-0.8-0.9-1.3-0.9c-0.6,0-1.1,0.2-1.5,0.7C11,3.5,11,4.1,11.3,4.6l1.6,3.3c-2.1,1.1-4,2.5-5.8,4L4.2,9.3
	C3.9,9,3.5,8.8,3.1,8.8C2.6,8.8,2.2,9,1.9,9.3C1.6,9.6,1.5,10,1.5,10.5c0,0.4,0.2,0.8,0.5,1.1l2.6,2.5c-1.3,1.3-2.4,2.5-3.3,3.5
	c-0.3,0.3-0.6,0.6-0.8,0.9l0,0C0.2,18.7,0.1,19,0,19.4c0,0.1,0,0.1,0,0.2c0,0,0,0,0,0c0,0,0,0.1,0,0.1c0,0.4,0.2,0.8,0.5,1.1
	C0.7,21,1,21.3,1.3,21.7c0.9,1,2,2.2,3.3,3.5l-2.6,2.5c-0.4,0.4-0.6,1-0.4,1.6c0.1,0.6,0.6,1,1.1,1.2c0.6,0.2,1.1,0,1.6-0.4l2.8-2.6
	c1.8,1.5,3.7,2.9,5.8,4l-1.6,3.3c-0.3,0.5-0.2,1.1,0.1,1.6c0.3,0.5,0.9,0.8,1.5,0.7c0.6,0,1.1-0.4,1.3-0.9l0,0l1.6-3.3
	c2.4,0.9,5,1.5,7.5,1.7v3.5c0,0.6,0.3,1.1,0.8,1.4c0.5,0.3,1.1,0.3,1.6,0c0.5-0.3,0.8-0.8,0.8-1.4v-3.5c2.6-0.2,5.1-0.7,7.5-1.7v0
	l1.6,3.3c0.3,0.5,0.8,0.9,1.3,0.9c0.6,0,1.1-0.2,1.5-0.7c0.3-0.5,0.4-1.1,0.1-1.6l-1.6-3.3c2.1-1.1,4-2.5,5.8-4l2.8,2.6
	c0.3,0.3,0.7,0.5,1.2,0.5c0.4,0,0.9-0.2,1.1-0.5c0.3-0.3,0.5-0.7,0.4-1.2c0-0.4-0.2-0.8-0.5-1.1l-2.6-2.5c1.3-1.3,2.4-2.5,3.3-3.5
	c0.3-0.3,0.6-0.6,0.8-0.9l0,0C49.8,20.5,49.9,20.2,50,19.9z M25,31.2C14.6,31.2,7.9,24,3.8,19.6C7.9,15.2,14.6,8.1,25,8.1
	c10.5,0,17.2,7.2,21.2,11.6C42.1,24,35.4,31.2,25,31.2z"/>
<circle fill="#fff1e6" cx="25" cy="19.7" r="9.8"/>
</svg>
