<?xml version="1.0" encoding="utf-8"?>
<!-- Generator: Adobe Illustrator 25.2.1, SVG Export Plug-In . SVG Version: 6.00 Build 0)  -->
<svg version="1.1" id="Layer_1" xmlns="http://www.w3.org/2000/svg" xmlns:xlink="http://www.w3.org/1999/xlink" x="0px" y="0px"
	 width="33px" height="60px" viewBox="0 0 33 60" enable-background="new 0 0 33 60" xml:space="preserve">
<path fill="#F2F0F0" d="M12.5,34.4c0.9-1.6,1.8-3.2,2.8-4.9c0.4-0.6,0-1.1-0.2-1.6c-0.7-1.3-1.5-2.7-2.2-4l0,0
	c-0.1-0.2-0.2-0.4-0.2-0.6c0.1-0.7-0.2-1.3-0.8-1.8c-0.1-0.2-0.2-0.4-0.1-0.6c0.1-0.2,0.3-0.2,0.5-0.2c1.1,0.5,2.4,0.9,3,2.1
	c0.6,1.3,1.1,2.6,1.6,3.9c0.5-0.9,1.2-2,1.8-3c0.1-0.2,0.1-0.5-0.1-0.8c-0.4-1.1-0.8-2-1.3-3c-0.4-0.6-0.8-1.3-1.1-1.9
	c-0.2-0.5-0.5-0.9-0.6-1.4c0-0.2,0.1-0.4,0.2-0.5c0.2-0.1,0.4-0.1,0.6,0.1c0.7,0.4,1.3,0.6,2,1.1c1.2,0.6,1.5,1.8,1.7,3l0,0
	c0,0.3,0.1,0.5,0.2,0.8c0.5-0.8,0.9-1.5,1.3-2.3c0.1-0.2,0.1-0.5-0.1-0.8c-0.8-1.3-1.6-2.6-2.4-4c-0.2-0.5-0.5-0.9-0.6-1.4
	c-0.1-0.2-0.1-0.5,0.1-0.6c0.2-0.1,0.4-0.1,0.6,0c1.7,1.2,3.1,2.6,3.2,5l0,0c0.1-0.2,0.2-0.5,0.4-0.6c0.7-1.1,1.2-2,0.8-3.4
	c-0.4-1.2-0.6-2.3-0.8-3.7c-1.1,0.4-1.8,0.1-2.1-1.1c-0.2-0.8,0.2-1.3,0.6-1.8l0,0c0.2-0.3,0.5-0.5,0.8-0.6c0.3-0.1,0.6-0.2,0.9-0.1
	c0.7,0.1,1.3,1.4,0.9,2.2c-0.5,0.9-0.4,1.7,0,2.5c0.3,0.8,0.5,1.5,0.7,2.6c0.3-0.6,0.5-1.2,0.7-1.8c0.5-2.2,1-4.4,1.5-6.7l0,0
	c0.2-0.4,0-0.9-0.4-1.1c-0.5-0.3-0.8-0.8-0.7-1.3c0-0.5,0.3-1.1,0.8-1.3c0.2-0.2,0.5-0.4,0.8-0.6c0.5-0.2,1-0.2,1.5,0
	c0.4,0.3,0.5,0.8,0.5,1.2c-0.1,0.9-0.2,1.8-1.2,2.2l0,0c-0.2,0.1-0.4,0.4-0.4,0.6c-0.5,2.2-0.9,4.3-1.3,6.4c0.8-0.4,1.7-0.8,2.6-1.2
	c0.2-0.1,0.3-0.2,0.4-0.4c0.2-0.6,0.5-1.3,0.6-1.9C29.6,6,30.4,6,31.1,6c0.4,0,0.7,0.1,1,0.3c0.3,0.2,0.5,0.5,0.6,0.8
	c0.2,0.4,0.2,0.7,0.2,1.1c-0.1,0.4-0.2,0.7-0.5,0.9c-0.4,0.4-0.8,0.8-1.2,1.1c-0.6,0.4-1.3,0.7-2,0.1c-0.2-0.1-0.5-0.1-0.8-0.1
	c-2.3,0.6-3.5,2.4-4.3,4.5c-0.2,0.5-0.5,1.1-0.8,1.6l0.2,0.1c0.5-0.4,1.1-0.6,1.7-0.8c0.7-0.1,1.3-0.2,2-0.2c0.3-0.1,0.6-0.1,0.9,0
	c0.2,0.1,0.4,0.1,0.6,0.2c-0.1,0.2-0.2,0.4-0.4,0.5c-0.4,0.3-0.7,0.6-1.1,0.8c-0.8,0.4-1.5,0.8-2.3,1.1c-0.3,0.1-0.6,0.2-1,0.2
	c-2.1,0-2.5,1.7-3.3,3.1c1.3-0.2,2.5-0.5,3.8-0.7l0,0c0.8-0.1,1.6-0.1,2.5,0c0.7,0.1,0.8,0.4,0.4,1l0,0c-0.9,1-2,1.6-3.4,1.8
	c-1.3,0.2-2.7,0.4-4,0.6c-0.2,0-0.5,0-0.8-0.1c-0.8,1.5-1.7,3-2.5,4.4l0.1,0.1c0.4-0.2,0.8-0.4,1.2-0.6c2.1-0.9,4.3-0.8,6.6-0.8
	c0.2,0,0.3,0.1,0.4,0.2c0,0.2-0.1,0.5-0.3,0.6c-1.3,0.6-2.6,1.4-4,1.8c-1.4,0.4-3,0.3-4.4,0.5l0,0c-0.4,0.1-0.7,0.3-0.9,0.6
	c-0.5,0.8-1,1.7-1.4,2.5c0.9-0.3,1.9-0.8,3-0.8l0,0c1.1,0,2.1,0.1,3.2,0.4c0.2,0.1,0.4,0.5,0.5,0.8c-0.2,0.2-0.5,0.4-0.8,0.5
	c-2.1,0.1-4,0.9-6,1.6c-0.9,0.4-1.7,0.8-2,1.8c-0.6,1.6-1.2,3.2-1.6,4.4l0,0c0.7-0.6,1.5-1.1,2.2-1.6c1.3-0.8,2.8-1.2,3.9-2.1
	c1.1-0.8,2.1-0.8,3.2-0.8l0,0c0.2,0,0.5,0.1,0.6,0.4c0,0.2-0.1,0.5-0.2,0.6c-1.2,1-2.5,2-3.8,2.9l0,0c-0.6,0.5-1.2,0.8-1.9,1.2
	c-1.5,0.6-3,1.3-4.4,1.9c-0.4,0.1-0.8,0.1-1.1,0.1c-0.4,1.7-0.9,3.6-1.4,5.5l0,0c1.1-0.7,2.2-1.3,3.3-1.9c1.4-0.6,2.9-1.1,4.4-1.6
	l0,0c0.4-0.1,0.8-0.2,1.3-0.4c0.3-0.1,0.6-0.1,1-0.1c0.9,0.1,1.8,0.2,2.8,0.4l0,0c-0.2,0.2-0.4,0.4-0.5,0.5c-0.7,0.5-1.4,1-2.1,1.5
	c-0.9,0.7-1.8,1.3-2.8,1.8c-1.9,0.8-3.9,1.5-5.9,2.2c-0.6,0.2-1.1,0.4-1.6,0.6c-0.3,0.2-0.5,0.5-0.6,0.8c-0.1,1.8-0.2,3.7-0.3,5.5
	c-0.1,0.3-0.1,0.6-0.2,0.8c-0.1,0-0.2-0.1-0.4-0.1c0-1-0.1-2-0.1-3c0-1.1,0.2-2.2,0.2-3.2l0,0c0-0.2-0.1-0.5-0.2-0.7
	c-2.2-2.9-4.3-5.6-4.4-9.2c-0.1-1.2-0.1-2.3-1.1-3.2C0.1,40.5,0,40.2,0,40c0-0.2,0.1-0.4,0.2-0.6c0.2,0,0.4,0,0.5,0.1
	c0.1,0.1,0.3,0.2,0.4,0.4c1.3,1.6,2.6,3.3,3.9,5c1.1,1.5,1.2,3.2,1.5,4.9c0,0.1,0.1,0.2,0.2,0.3c0.4-1.4,0.7-2.9,1.1-4.3
	c0-0.1,0-0.2,0.1-0.2c0.9-1.5,0-2.7-0.6-4l0,0c-0.9-1.5-1.5-3.2-1.9-5c-0.2-0.9-1-1.7-1.5-2.6c-0.1-0.2-0.2-0.5-0.2-0.7
	c0.2-0.1,0.4-0.1,0.6-0.1c0.7,0.5,1.4,1.1,2,1.7c1.3,1.5,2.5,3,2.7,5.1c0.1,0.6,0,1.2,0.1,2c0.2-0.4,0.3-0.6,0.4-0.8
	c0.6-1.3,1.2-2.5,1.7-3.8c0.2-0.6,0.3-1.3,0.1-2c-0.7-2.4-1.8-4.7-3.2-6.8c-0.1-0.2-0.2-0.4-0.1-0.6C8,28,8.2,27.9,8.4,27.9
	c3.2-0.1,4.3,2.6,4.1,5.3C12.5,33.6,12.5,34,12.5,34.4L12.5,34.4z"/>
<path fill="#3D3D3D" d="M12.5,34.4c0.9-1.6,1.8-3.2,2.8-4.9c0.4-0.6,0-1.1-0.2-1.6c-0.7-1.3-1.5-2.7-2.2-4l0,0
	c-0.1-0.2-0.2-0.4-0.2-0.6c0.1-0.7-0.2-1.3-0.8-1.8c-0.1-0.2-0.2-0.4-0.1-0.6c0.1-0.2,0.3-0.2,0.5-0.2c1.1,0.5,2.4,0.9,3,2.1
	c0.6,1.3,1.1,2.6,1.6,3.9c0.5-0.9,1.2-2,1.8-3c0.1-0.2,0.1-0.5-0.1-0.8c-0.4-1.1-0.8-2-1.3-3c-0.4-0.6-0.8-1.3-1.1-1.9
	c-0.2-0.5-0.5-0.9-0.6-1.4c0-0.2,0.1-0.4,0.2-0.5c0.2-0.1,0.4-0.1,0.6,0.1c0.7,0.4,1.3,0.6,2,1.1c1.2,0.6,1.5,1.8,1.7,3l0,0
	c0,0.3,0.1,0.5,0.2,0.8c0.5-0.8,0.9-1.5,1.3-2.3c0.1-0.2,0.1-0.5-0.1-0.8c-0.8-1.3-1.6-2.6-2.4-4c-0.2-0.5-0.5-0.9-0.6-1.4
	c-0.1-0.2-0.1-0.5,0.1-0.6c0.2-0.1,0.4-0.1,0.6,0c1.7,1.2,3.1,2.6,3.2,5l0,0c0.1-0.2,0.2-0.5,0.4-0.6c0.7-1.1,1.2-2,0.8-3.4
	c-0.4-1.2-0.6-2.3-0.8-3.7c-1.1,0.4-1.8,0.1-2.1-1.1c-0.2-0.8,0.2-1.3,0.6-1.8l0,0c0.2-0.3,0.5-0.5,0.8-0.6c0.3-0.1,0.6-0.2,0.9-0.1
	c0.7,0.1,1.3,1.4,0.9,2.2c-0.5,0.9-0.4,1.7,0,2.5c0.3,0.8,0.5,1.5,0.7,2.6c0.3-0.6,0.5-1.2,0.7-1.8c0.5-2.2,1-4.4,1.5-6.7l0,0
	c0.2-0.4,0-0.9-0.4-1.1c-0.5-0.3-0.8-0.8-0.7-1.3c0-0.5,0.3-1.1,0.8-1.3c0.2-0.2,0.5-0.4,0.8-0.6c0.5-0.2,1-0.2,1.5,0
	c0.4,0.3,0.5,0.8,0.5,1.2c-0.1,0.9-0.2,1.8-1.2,2.2l0,0c-0.2,0.1-0.4,0.4-0.4,0.6c-0.5,2.2-0.9,4.3-1.3,6.4c0.8-0.4,1.7-0.8,2.6-1.2
	c0.2-0.1,0.3-0.2,0.4-0.4c0.2-0.6,0.5-1.3,0.6-1.9C29.6,6,30.4,6,31.1,6c0.4,0,0.7,0.1,1,0.3c0.3,0.2,0.5,0.5,0.6,0.8
	c0.2,0.4,0.2,0.7,0.2,1.1c-0.1,0.4-0.2,0.7-0.5,0.9c-0.4,0.4-0.8,0.8-1.2,1.1c-0.6,0.4-1.3,0.7-2,0.1c-0.2-0.1-0.5-0.1-0.8-0.1
	c-2.3,0.6-3.5,2.4-4.3,4.5c-0.2,0.5-0.5,1.1-0.8,1.6l0.2,0.1c0.5-0.4,1.1-0.6,1.7-0.8c0.7-0.1,1.3-0.2,2-0.2c0.3-0.1,0.6-0.1,0.9,0
	c0.2,0.1,0.4,0.1,0.6,0.2c-0.1,0.2-0.2,0.4-0.4,0.5c-0.4,0.3-0.7,0.6-1.1,0.8c-0.8,0.4-1.5,0.8-2.3,1.1c-0.3,0.1-0.6,0.2-1,0.2
	c-2.1,0-2.5,1.7-3.3,3.1c1.3-0.2,2.5-0.5,3.8-0.7l0,0c0.8-0.1,1.6-0.1,2.5,0c0.7,0.1,0.8,0.4,0.4,1l0,0c-0.9,1-2,1.6-3.4,1.8
	c-1.3,0.2-2.7,0.4-4,0.6c-0.2,0-0.5,0-0.8-0.1c-0.8,1.5-1.7,3-2.5,4.4l0.1,0.1c0.4-0.2,0.8-0.4,1.2-0.6c2.1-0.9,4.3-0.8,6.6-0.8
	c0.2,0,0.3,0.1,0.4,0.2c0,0.2-0.1,0.5-0.3,0.6c-1.3,0.6-2.6,1.4-4,1.8c-1.4,0.4-3,0.3-4.4,0.5l0,0c-0.4,0.1-0.7,0.3-0.9,0.6
	c-0.5,0.8-1,1.7-1.4,2.5c0.9-0.3,1.9-0.8,3-0.8l0,0c1.1,0,2.1,0.1,3.2,0.4c0.2,0.1,0.4,0.5,0.5,0.8c-0.2,0.2-0.5,0.4-0.8,0.5
	c-2.1,0.1-4,0.9-6,1.6c-0.9,0.4-1.7,0.8-2,1.8c-0.6,1.6-1.2,3.2-1.6,4.4l0,0c0.7-0.6,1.5-1.1,2.2-1.6c1.3-0.8,2.8-1.2,3.9-2.1
	c1.1-0.8,2.1-0.8,3.2-0.8l0,0c0.2,0,0.5,0.1,0.6,0.4c0,0.2-0.1,0.5-0.2,0.6c-1.2,1-2.5,2-3.8,2.9l0,0c-0.6,0.5-1.2,0.8-1.9,1.2
	c-1.5,0.6-3,1.3-4.4,1.9c-0.4,0.1-0.8,0.1-1.1,0.1c-0.4,1.7-0.9,3.6-1.4,5.5l0,0c1.1-0.7,2.2-1.3,3.3-1.9c1.4-0.6,2.9-1.1,4.4-1.6
	l0,0c0.4-0.1,0.8-0.2,1.3-0.4c0.3-0.1,0.6-0.1,1-0.1c0.9,0.1,1.8,0.2,2.8,0.4l0,0c-0.2,0.2-0.4,0.4-0.5,0.5c-0.7,0.5-1.4,1-2.1,1.5
	c-0.9,0.7-1.8,1.3-2.8,1.8c-1.9,0.8-3.9,1.5-5.9,2.2c-0.6,0.2-1.1,0.4-1.6,0.6c-0.3,0.2-0.5,0.5-0.6,0.8c-0.1,1.8-0.2,3.7-0.3,5.5
	c-0.1,0.3-0.1,0.6-0.2,0.8c-0.1,0-0.2-0.1-0.4-0.1c0-1-0.1-2-0.1-3c0-1.1,0.2-2.2,0.2-3.2l0,0c0-0.2-0.1-0.5-0.2-0.7
	c-2.2-2.9-4.3-5.6-4.4-9.2c-0.1-1.2-0.1-2.3-1.1-3.2C0.1,40.5,0,40.2,0,40c0-0.2,0.1-0.4,0.2-0.6c0.2,0,0.4,0,0.5,0.1
	c0.1,0.1,0.3,0.2,0.4,0.4c1.3,1.6,2.6,3.3,3.9,5c1.1,1.5,1.2,3.2,1.5,4.9c0,0.1,0.1,0.2,0.2,0.3c0.4-1.4,0.7-2.9,1.1-4.3
	c0-0.1,0-0.2,0.1-0.2c0.9-1.5,0-2.7-0.6-4l0,0c-0.9-1.5-1.5-3.2-1.9-5c-0.2-0.9-1-1.7-1.5-2.6c-0.1-0.2-0.2-0.5-0.2-0.7
	c0.2-0.1,0.4-0.1,0.6-0.1c0.7,0.5,1.4,1.1,2,1.7c1.3,1.5,2.5,3,2.7,5.1c0.1,0.6,0,1.2,0.1,2c0.2-0.4,0.3-0.6,0.4-0.8
	c0.6-1.3,1.2-2.5,1.7-3.8c0.2-0.6,0.3-1.3,0.1-2c-0.7-2.4-1.8-4.7-3.2-6.8c-0.1-0.2-0.2-0.4-0.1-0.6C8,28,8.2,27.9,8.4,27.9
	c3.2-0.1,4.3,2.6,4.1,5.3C12.5,33.6,12.5,34,12.5,34.4L12.5,34.4z M17.8,46.9c-2.5-0.7-9.7,2.3-10.8,4.7c0.1,0,0.2,0,0.4,0
	c2.8-0.9,5.5-1.9,8.2-2.9C16.3,48.4,17,47.6,17.8,46.9L17.8,46.9z M1.9,42.4c0.2,1.1,0.2,2,0.4,2.9c0.2,0.8,0.4,1.6,0.8,2.5
	c0.4,0.8,0.8,1.6,1.4,2.2c0.5,0.6,0.8,1.6,1.7,1.9C6,51.5,5.8,51,5.7,50.6c-0.1-0.8-0.2-1.5-0.3-2.3c-0.2-1.3-0.5-2.6-1.5-3.6
	C3.2,44.1,2.6,43.3,1.9,42.4L1.9,42.4z M17.7,38.7c-3,0.5-5.4,2.2-7.5,4.3C13.1,42.2,15.9,41.4,17.7,38.7L17.7,38.7z M26.6,21.6
	c-2.2-0.5-4.2,0.1-6,0.9c-0.2,0.2-0.4,0.5-0.6,0.8C22.4,22.7,24.7,23.1,26.6,21.6L26.6,21.6z M30.7,9.6c0.4-0.4,0.9-0.8,1.3-1.3
	c0.6-0.6,0.5-1-0.2-1.5c-0.6-0.5-1.1-0.4-1.6,0.2C30,7.3,29.8,7.6,29.8,8s0,0.7,0.1,1.1C30,9.7,30.2,9.7,30.7,9.6L30.7,9.6z
	 M15.7,27.8c0.2-1.9-1.2-5-2.4-5.4C13.3,24.5,14.5,26.1,15.7,27.8z M8,41.8c0.2-2.2-0.6-4.3-2.2-5.7C6,38.1,6.8,40.1,8,41.8z
	 M17.4,29.2c2.1,0,4.3,0.1,6-1.3C21.4,28,19.3,27.9,17.4,29.2L17.4,29.2z M11.4,34c0.7-2.5-0.2-4.7-1.8-4.9L11.4,34L11.4,34z
	 M16.9,17.5c0.7,1.6,1.5,3.2,2.2,4.9C19.7,20.1,18.4,17.4,16.9,17.5L16.9,17.5z M13.6,34.7c1.8-0.5,3.8-0.9,6-1.5
	C17.1,32.7,15.1,33,13.6,34.7z M27.4,0.7c-0.9,0.4-1.5,1.2-1.2,1.6c0.4,0.3,0.8,0.5,1.2,0.6c0.2-0.6,0.5-1.2,0.7-1.8
	C27.9,0.9,27.7,0.8,27.4,0.7L27.4,0.7z M22.2,8.5c0.2-0.5,0.5-1.1,0.6-1.6c-0.2-0.2-0.5-0.4-0.9-0.4c-0.5,0.1-1,0.9-0.8,1.3
	C21.5,8.1,21.8,8.3,22.2,8.5L22.2,8.5z M23.4,17.4c0.1,0.1,0.1,0.1,0.1,0.2c0.9-0.2,1.7-0.4,2.6-0.6l0,0c0.2-0.1,0.4-0.3,0.5-0.5
	c-0.2-0.1-0.5-0.4-0.6-0.4C25,16.6,24.2,17,23.4,17.4L23.4,17.4z"/>
</svg>
