<?xml version="1.0" encoding="utf-8"?>
<!-- Generator: Adobe Illustrator 25.2.1, SVG Export Plug-In . SVG Version: 6.00 Build 0)  -->
<svg version="1.1" id="Layer_1" xmlns="http://www.w3.org/2000/svg" xmlns:xlink="http://www.w3.org/1999/xlink" x="0px" y="0px"
	 width="242px" height="413.1px" viewBox="0 0 242 413.1" style="enable-background:new 0 0 242 413.1;" xml:space="preserve">
<style type="text/css">
	.st0{fill:#3D3D3D;}
</style>
<path class="st0" d="M93.2,233.4c5.9-10.5,11.8-21,17.7-31.5c2.2-3.9,0.1-6.9-1.6-10.1c-4.7-8.7-9.4-17.4-14-26.1l0,0
	c-0.7-1.3-1.1-2.7-1.2-4.1c0.2-4.4-1.6-8.6-5-11.4c-0.9-1.1-1.2-2.4-0.9-3.7c0.6-1,1.8-1.5,3-1.5c7.2,3.5,15.6,5.5,19.4,13.7
	c3.9,8.5,7.3,17.3,10.7,25.3c3.4-5.8,7.6-12.8,11.5-19.9c0.5-1.7,0.2-3.4-0.5-5c-2.7-6.7-5.5-13.4-8.6-19.8c-2.1-4.3-5-8.3-7.3-12.5
	c-1.6-2.9-3-5.9-4-9c-0.2-1.3,0.3-2.7,1.3-3.6c1.3-0.5,2.7-0.4,3.9,0.2c4.4,2.1,8.8,4.3,13.1,6.7c7.6,4.3,9.5,12,11.1,19.6l0,0
	c0.1,1.8,0.5,3.4,1.3,5c2.9-5.1,6-10,8.6-15.2c0.5-1.7,0.3-3.6-0.6-5.1c-5.1-8.6-10.5-17.1-15.6-25.7c-1.7-3-3.2-6.1-4.3-9.3
	c-0.6-1.3-0.3-2.9,0.8-3.8c1.2-0.9,2.7-0.9,3.9,0.1c10.9,7.9,20.3,16.9,21,32.5l0,0c0.7-1.5,1.4-2.9,2.2-4.3
	c4.6-6.7,7.6-13.5,4.8-22.1c-2.4-7.5-3.6-15.4-5.5-23.8c-7.3,2.3-11.7,0.4-13.7-6.7c-1.5-5.1,1.1-8.4,3.7-11.8l0,0
	c1.2-1.8,2.9-3.1,4.8-3.9c1.9-0.8,4.1-1.1,6.1-0.6c4.7,0.8,8.5,9.3,5.5,14.4c-3.3,5.8-2.1,10.9,0.1,16.5c1.9,4.8,2.9,10,4.7,16.6
	c1.8-3.7,3.3-7.5,4.6-11.4c3.4-14.4,6.5-28.8,9.9-43.2l0,0c1.1-2.7-0.1-5.7-2.6-7.1c-3-1.9-4.8-5.1-4.7-8.7c0.1-3.5,2-6.8,5-8.5
	c1.6-1.5,3.3-2.7,5.3-3.6c3.2-1,6.5-1,9.6,0c2.3,2,3.4,4.9,3.2,7.9c-0.8,5.6-1.6,11.6-8.1,14.4l0,0c-1.3,0.8-2.3,2.1-2.7,3.6
	c-2.9,13.9-5.7,27.8-8.5,41.4c5.3-2.4,11.1-5,16.9-7.7c1.1-0.5,2-1.4,2.5-2.6c1.6-4.1,2.9-8.3,3.7-12.5c1.1-6.8,6.4-6.7,11.1-7
	c2.3-0.1,4.6,0.5,6.4,1.8c1.9,1.2,3.4,3,4.3,5.2c1.1,2.1,1.5,4.6,1.1,6.9c-0.4,2.3-1.6,4.5-3.4,6.1c-2.3,2.7-5,5.2-7.9,7.4
	c-4,2.8-8.2,4.4-12.8,0.6c-1.5-0.7-3.2-0.8-4.8-0.2c-15.2,4.1-22.8,15.5-28.2,29.1c-1.6,3.6-3.4,7.1-5.4,10.4l1.2,0.9
	c3.4-2.1,7.1-3.8,11-5.2c4.4-0.8,8.8-1.2,13.2-1.2c1.9-0.2,3.9-0.3,5.8-0.2c1.4,0.4,2.7,0.9,4,1.6c-0.7,1.1-1.5,2.2-2.3,3.1
	c-2.2,2-4.5,3.8-7,5.4c-4.8,2.7-9.9,5-14.9,7.3c-2,0.9-4.1,1.3-6.3,1.4c-13.5,0.1-16.3,11.2-21.1,20c8.3-1.6,16.5-3.6,24.7-4.6l0,0
	c5.4-0.5,10.8-0.4,16.1,0.2c4.6,0.3,5.4,2.6,2.3,6.4l0,0c-5.5,6.5-13.4,10.6-21.9,11.5c-8.7,1.2-17.4,2.7-26.1,4
	c-1.6,0-3.3-0.2-4.9-0.5c-5.5,9.6-10.9,19.2-16.3,28.8l0.9,0.8c2.5-1.2,4.8-2.6,7.4-3.7c13.7-5.8,28.1-5.4,42.5-5.4
	c1,0.1,1.9,0.6,2.6,1.2c-0.1,1.5-0.7,3-1.8,4.1c-8.5,4.1-16.9,9.3-25.9,11.6c-9.3,2.4-19.3,1.8-29,2.9l0,0c-2.3,0.4-4.4,1.8-5.7,3.6
	c-3.6,5.4-6.6,11.2-9.3,15.9c6.1-1.8,12.5-4.8,19.3-5.4l0,0c6.9-0.2,13.8,0.6,20.5,2.2c1.3,0.2,2.3,3.2,3.4,4.8
	c-1.4,1.4-3.2,2.5-5.1,3.2c-13.7,0.5-26,5.5-38.6,10.3c-6,2.3-10.9,5-13.2,11.6c-3.7,10.6-7.8,21-10.7,28.7l0,0
	c4.6-3.7,9.5-7.2,14.5-10.4c8.3-4.9,17.9-8.1,25.6-13.7c6.8-4.9,13.6-5.1,21-4.8l0,0c1.7,0.1,3.2,0.9,4.2,2.3c0.2,1.5-0.4,3-1.6,4
	c-8.1,6.5-16.2,13-24.6,19.1l0,0c-3.9,2.9-8.1,5.4-12.4,7.5c-9.6,4.3-19.3,8.2-29,12.1c-2.3,0.5-4.8,0.8-7.2,0.8
	c-2.8,10.9-5.9,23.1-9.2,35.9l0,0c7-4.6,14.3-8.8,21.8-12.5c9.3-4.2,19.1-7.2,28.7-10.6l0,0c2.7-0.9,5.5-1.6,8.3-2.2
	c2-0.6,4.2-0.9,6.4-0.9c5.7,0.5,11.3,1.5,18.1,2.3l0,0c-1.1,1.1-2.2,2.1-3.4,3.1c-4.5,3.2-8.9,6.5-13.5,9.6
	c-5.7,4.4-11.8,8.2-18.2,11.4c-12.5,5.4-25.4,9.7-38.2,14.5c-3.6,1-7.1,2.3-10.6,3.8c-2,1.2-3.4,3.2-3.9,5.5
	c-0.9,11.8-1.2,23.8-1.9,35.6c-0.4,1.9-0.9,3.7-1.6,5.4c-0.8-0.2-1.6-0.3-2.4-0.5c-0.2-6.5-0.6-13.1-0.5-19.7c0.2-7,1.1-14,1.3-21.1
	l0,0c0.1-1.6-0.4-3.3-1.3-4.6C35,335.6,21.6,318,20.5,294.3c-0.4-7.6-0.8-15.2-6.8-21c-0.9-0.9-1.4-2.2-1.5-3.4
	c-0.1-1.3,0.2-2.7,1-3.8c1.2-0.2,2.3,0.1,3.3,0.7c0.9,0.6,1.8,1.3,2.3,2.2c8.5,10.7,17.1,21.3,25.4,32.2c7.2,9.3,7.5,20.8,9.3,31.8
	c0.1,0.8,0.4,1.5,1,2c2.3-9.2,4.6-18.4,6.8-27.7c0.1-0.5,0.2-1.1,0.4-1.6c5.9-9.7,0.2-17.6-4.1-25.7l0,0c-5.8-10-10-20.8-12.4-32.1
	c-1.1-6-6.6-11.2-10-16.8c-0.6-1.4-1.2-2.9-1.6-4.4c1.5-0.6,3.2-0.8,4.7-0.6c4.7,3.2,9.2,6.9,13.1,11c8.5,9.6,16.3,19.8,17.4,33.4
	c0.3,3.9,0.2,7.8,0.3,13.2c1.2-2.3,2-3.7,2.6-5.2c3.8-8.2,8-16.3,11.1-24.8c1.5-4.1,1.8-8.7,0.6-13c-4.5-15.6-11.4-30.5-20.5-44
	c-0.8-1.1-1.1-2.5-0.7-3.9c1.2-1.1,2.6-1.6,4.2-1.6c20.8-0.2,27.9,17.1,26.5,34.3c-0.2,2.6-0.5,5.3-0.8,7.8L93.2,233.4z
	 M127.9,314.7C112,310,65,330,58.2,345.5c0.7,0.1,1.4,0,2.1-0.2c17.7-6.2,35.5-12.1,53-19.1C118.5,324.2,122.5,319.1,127.9,314.7
	L127.9,314.7z M24.4,285.4c1,7.1,1.5,12.9,2.7,18.4c1.1,5.5,2.7,10.8,5,15.9c2.5,5.2,5.5,10.1,9.1,14.6c3.3,4.1,4.8,10.1,11,12.5
	c-1.2-2.6-2.2-5.3-2.9-8c-0.9-5-1.2-10-2-14.9c-1.5-8.3-3.3-16.6-9.6-23.1C33.2,296.2,29.3,291.1,24.4,285.4L24.4,285.4z
	 M127.3,261.6c-19.4,3.5-34.9,13.9-48.4,27.6C97.2,284,115.7,278.8,127.3,261.6L127.3,261.6z M185.4,150.1
	c-14.4-3.3-26.9,0.2-39,5.7c-1.6,1.3-2.8,3-3.7,4.8C157.4,157.2,172.5,160.3,185.4,150.1L185.4,150.1z M211.7,72.8
	c2.8-2.7,5.7-5.3,8.3-8.2c3.7-4.1,3.3-6.4-1.2-9.7c-4.1-3-7.3-2.1-10.4,1.5c-1.5,1.8-2.5,3.9-2.9,6.2c-0.4,2.3-0.2,4.6,0.7,6.8
	C207.1,73.1,208.3,73.4,211.7,72.8L211.7,72.8z M114.4,190.5c1.2-12.3-8.1-32.6-15.6-35C98.5,169.3,106.7,179.3,114.4,190.5z
	 M64.1,281.7c1.6-14.1-3.8-28.1-14.5-37.4C51.6,257.6,56.5,270.4,64.1,281.7z M125.5,199.8c13.8-0.1,27.7,0.9,39.2-8.9
	C151.2,192.3,137.3,191.2,125.5,199.8L125.5,199.8z M86.2,230.6c4.6-16.3-1.6-30.8-11.9-31.7L86.2,230.6L86.2,230.6z M121.7,124
	c4.7,10.3,9.3,20.7,14.2,31.7C140.1,141,131.5,123.3,121.7,124L121.7,124z M100.7,235.3c11.7-2.9,24.9-6.2,38.8-9.7
	C123.8,222.5,110.3,224.5,100.7,235.3z M190.5,14.5c-6.1,2.3-9.8,7.9-7.6,10.4c2.3,1.8,4.8,3,7.6,3.7c1.7-3.7,3.2-7.6,4.4-11.6
	C193.6,16,192.1,15.1,190.5,14.5L190.5,14.5z M156.3,65.3c1.6-3.4,3-6.8,4.1-10.4c-1.6-1.3-3.5-2.2-5.5-2.3c-3.5,0.5-6.6,5.8-5,8.2
	C151.7,62.6,153.9,64.1,156.3,65.3L156.3,65.3z M163.8,123.2c0.2,0.4,0.5,0.9,0.8,1.3c5.5-1.2,11.1-2.3,16.6-3.7l0,0
	c1.2-0.8,2.2-1.8,2.9-2.9c-1.4-0.8-3.3-2.7-4.2-2.3C174.4,117.7,169.1,120.5,163.8,123.2L163.8,123.2z"/>
</svg>
