<svg xmlns="http://www.w3.org/2000/svg" width="32.93" height="50" viewBox="0 0 32.93 50"><g id="flower"><path d="M19.87,37.19a34.75,34.75,0,0,0-6.74-7.67C11.22,27.86,5,24.28,5.31,24.69s5.85,5.26,8.54,8.07c4.32,4.53,4.84,7.36,4.84,7.36" fill="none" stroke="#594a42" stroke-linecap="round" stroke-miterlimit="10" stroke-width="0.5"/><path d="M18.67,44s-.6-3.6.58-5.55c1.43-2.35,2.88-2,2.88-2a18.19,18.19,0,0,0-2.63,4.93,51.11,51.11,0,0,0-.94,6.84l-.6-.6a54.52,54.52,0,0,0-.12-5.57A4.22,4.22,0,0,1,18,39.63Z" fill="none" stroke="#594a42" stroke-linecap="round" stroke-linejoin="round" stroke-width="0.5"/><path d="M18.07,34.65c-.06-1-.6-3.7-4.78-5.88A33.56,33.56,0,0,0,10,27.29" fill="none" stroke="#594a42" stroke-linecap="round" stroke-miterlimit="10" stroke-width="0.3"/><path d="M17.68,34.15c-.3-1.27-1.31-3.36-4.66-5.12-.46-.23-1-.48-1.51-.71" fill="none" stroke="#594a42" stroke-linecap="round" stroke-miterlimit="10" stroke-width="0.3"/><path d="M17.12,33.56a8.89,8.89,0,0,0-4.38-4.24" fill="none" stroke="#594a42" stroke-linecap="round" stroke-miterlimit="10" stroke-width="0.3"/><path d="M5.7,24.81a63.81,63.81,0,0,1,8,3.17,10.12,10.12,0,0,1,4.53,4.18" fill="none" stroke="#594a42" stroke-linecap="round" stroke-miterlimit="10" stroke-width="0.3"/><path d="M18.5,35.06c0-.16.34-3.89-5-6.69A49.43,49.43,0,0,0,8.08,26.1" fill="none" stroke="#594a42" stroke-linecap="round" stroke-miterlimit="10" stroke-width="0.3"/><path d="M19.35,33.56a8,8,0,0,1-.85-4,28,28,0,0,1,.38-3.39C19.41,23.55,25,16,25,16a26.39,26.39,0,0,0-4.76,3.34c-1.54,1.57-2.54,5.35-2.54,5.35-.31-.07-.57-2.7-3.24-2.83s-5.12.82-6.07.85A7.67,7.67,0,0,0,6,23c-.43.2,1-.05,1.57.15a5.87,5.87,0,0,0,2.18.39,7.56,7.56,0,0,1,3.43-.13c2.91.9,4,4.32,4,4.32" fill="none" stroke="#594a42" stroke-linecap="round" stroke-linejoin="round" stroke-width="0.5"/><path d="M25,16s-2.73,3.06-3.09,3.4-.56,1.82-.72,2.13-2,2.24-2,2.24l-.74.38c-.75.39-1.16,2.81-1.19,4.4A7.82,7.82,0,0,0,18,31.67a5.8,5.8,0,0,1,.62,2.21" fill="none" stroke="#594a42" stroke-linecap="round" stroke-miterlimit="10" stroke-width="0.5"/><path d="M17.22,23.82a60.67,60.67,0,0,1-.42-9.61A8.86,8.86,0,0,1,19.59,8L20,7.72" fill="none" stroke="#594a42" stroke-linecap="round" stroke-miterlimit="10" stroke-width="0.45"/><path d="M17.72,24.07a62.93,62.93,0,0,1-.48-9.82,8.51,8.51,0,0,1,2.63-5.87" fill="none" stroke="#594a42" stroke-linecap="round" stroke-miterlimit="10" stroke-width="0.45"/><path d="M19.87,36.49c0-.3,2.09-5.41,3.44-6.9,2.18-2.42,1.65-5.27,2.83-6.08a5.44,5.44,0,0,1,1.82-1,7,7,0,0,0-3,.83c-3.76,2.3-6.2,8.09-6.2,8.09" fill="none" stroke="#594a42" stroke-linecap="round" stroke-linejoin="round" stroke-width="0.5"/><path d="M26.86,23.1a3.19,3.19,0,0,0-1.57.59c-3.56,2.93-6.2,8.09-6.2,8.09" fill="none" stroke="#594a42" stroke-linecap="round" stroke-miterlimit="10" stroke-width="0.3"/><path d="M25.37,24.23a61.66,61.66,0,0,0-6.13,8" fill="none" stroke="#594a42" stroke-linecap="round" stroke-miterlimit="10" stroke-width="0.3"/><path d="M25.29,24.81c-3.3,4-5.85,7.87-5.85,7.87" fill="none" stroke="#594a42" stroke-linecap="round" stroke-miterlimit="10" stroke-width="0.3"/><path d="M19.26,35.9s-.5-1.87.2-2.74,5.42-7,5.17-7.06" fill="none" stroke="#594a42" stroke-linecap="round" stroke-miterlimit="10" stroke-width="0.34"/><path d="M20.59,7.49s-1,.91.17,2.55,1.71,1.57,2.38,1.3,1.6-1.3,1-2.17S21.8,7.94,21.58,7" fill="none" stroke="#594a42" stroke-linecap="round" stroke-miterlimit="10" stroke-width="0.45"/><path d="M21.84,6.86S24.6,8,25.2,9a2.8,2.8,0,0,1,.63,1.81c0,.77-.07,1,.28,1.54s.48.56.38.87.73-.1.24-.87-.07-2.19-.52-2.86l-.45-.67h0l-3.5-2.34" fill="none" stroke="#594a42" stroke-linecap="round" stroke-miterlimit="10" stroke-width="0.45"/><path d="M21.25,6.48a4.07,4.07,0,0,0,1.75-1c.52-.56-.13-2.06,0-2.9,0-.25.42-2,.42-2L22.33,2.15c-.68.56-1.37.16-1.93,1.28a4.39,4.39,0,0,0-.2,2.63" fill="none" stroke="#594a42" stroke-linecap="round" stroke-linejoin="round" stroke-width="0.45"/><path d="M20.78,6.37a1.54,1.54,0,0,0-1.18-.13c-.89.24-1.44,1.25-2.23,1.91S15.12,10.27,15.28,11s.55.89.55.89-.32-.75-.13-1.08a14.41,14.41,0,0,1,2-2.22C18.26,8.13,20.17,7,20.17,7a15.08,15.08,0,0,0-.35,4c.23.92,1.15,3.59,1.15,3.59a18.28,18.28,0,0,1,.21-2.16c.14-.6.34-.78.13-1.41a2.15,2.15,0,0,0-.3-.63" fill="none" stroke="#594a42" stroke-linecap="round" stroke-linejoin="round" stroke-width="0.45"/><path d="M22.59,8.33c-1,0-1.08.17-1.34-.14s.06-.45-.08-.79a2,2,0,0,0-.46-.61" fill="none" stroke="#594a42" stroke-linecap="round" stroke-miterlimit="10" stroke-width="0.45"/><path d="M16.73,19.06c0-1.13-2-2.17-2.58-4a18.68,18.68,0,0,1-.68-5.51,9.54,9.54,0,0,1,.28-1.43,14.45,14.45,0,0,0,.54,3.09c.46,1.49,1.29,2,1.79,3.42a18.19,18.19,0,0,1,.52,2.29" fill="none" stroke="#594a42" stroke-linecap="round" stroke-linejoin="round" stroke-width="0.45"/></g></svg>