<?xml version="1.0" encoding="utf-8"?>
<!-- Generator: Adobe Illustrator 25.2.1, SVG Export Plug-In . SVG Version: 6.00 Build 0)  -->
<svg version="1.1" id="Layer_1" xmlns="http://www.w3.org/2000/svg" xmlns:xlink="http://www.w3.org/1999/xlink" x="0px" y="0px"
	 width="419px" height="553.9px" viewBox="0 0 419 553.9" style="enable-background:new 0 0 419 553.9;" xml:space="preserve">
<path d="M364,185.4c-3.1,3.8-6.1,7.8-9.4,11.4c-2.9,3.1-6.3,5.7-9.5,8.6c-6.9,6.3-13.7,12.6-21.5,19.8c5.6-1.3,9.9-2.4,14.6-3.5
	c3.2,7.4-2.8,10.3-4.9,13.9c1.6,3.7,4.9,7.7,4,10.2c-1.8,3.7-4.9,6.6-8.7,8.3c-7.2,3.4-15.4,4-23.1,1.8
	c-11.9-2.9-19.8,1.9-26.6,10.9c-12.5,16.4-25.5,32.5-38.1,48.8c-2.3,2.9-3.9,6.3-4.8,9.9c2.1-1.5,4.3-2.9,6.4-4.5h0
	c1.6-1.4,3.3-2.7,5.1-3.8c3.1-1.6,7.3-4,9.5-0.1c1.1,3.2,0.9,6.7-0.7,9.7c-2.1,3.3-4.6,6.3-7.6,8.8c-2,1.8-4.1,3.6-6.3,5.2
	c2.4,4.2,4.6,7.9,6.9,11.9c-7,5.7-14.3,5.1-21.2,5.2c-14.5,0.4-16.4,2.1-18.9,18.7l11.7-6.1c5.9,5.9,2.3,11.3,1.4,15.1
	c3.5,4.6,8.7,8.3,8.6,12h0c-0.5,5.2-3,10.1-6.9,13.6c-6.2,5.9-13.3,10.7-21.1,14.2c-3.4,1-6.3,3.2-8.3,6.3c-1.9,3-2.7,6.6-2.2,10.1
	c0.7,15.6,0.4,31.3,5,46.6c4.2,14.3,7.4,29,10.9,43.5h0c0.3,2.3,0.5,4.5,0.4,6.8c-4.1-1-7.1-4.6-7.4-8.8
	c-3.7-12.6-6.9-25.4-10.6-38.1c-5.6-18.8-9.2-38.1-10.7-57.7c-0.2-1.8-0.5-3.5-1-5.2c-5-17.5-1.2-19.2-22.4-19.7v0
	c-3.7-0.1-7.3-1.1-10.4-3.1c-3.1-1.9-5.7-4.7-7.4-8c2.8-2,5.3-3.8,8-5.7c0-1-0.1-1.9-0.4-2.9c-1.1-1.8-2-3.8-2.6-5.8
	c-0.6-2.9-0.2-5.9,1.2-8.5c1.6-1.2,3.7-1.6,5.6-1.1c1.9,0.5,3.6,1.8,4.5,3.6c2.1,2.9,3.8,6,5.8,9c2.1,3.1,4.2,6.2,6.3,9.3l1.9-0.9
	c-0.4-3.2-0.9-6.4-1.3-9.7l1.9-0.5c2,5.5,4,10.9,6,16.4l1.8-0.1c0-3.2,0.1-6.5,0-9.7c-0.6-14.9-1.4-29.9-1.8-44.8h0
	c0.1-4.2-1.2-8.4-3.7-11.8c-9.9-13.2-15.5-29.1-16.1-45.6c-0.8-4.6-0.1-9.3,2-13.4c2.1-4.1,5.6-7.4,9.7-9.4
	c10.8,13.5,4,30.4,9.2,47.1c1-16.4,1.9-30.7,2.8-44.9c0-1.8,0.1-3.6,0.3-5.3c1-3.4,0.9-7-0.3-10.4c-1.2-3.3-3.5-6.2-6.4-8.1
	c-7.5-6.2-13-14.4-15.9-23.7c-3.6-10.3-2.4-36.8,2.3-45.8l0,0c2.3-0.4,4.7,0.2,6.6,1.6c1.9,1.4,3.1,3.5,3.4,5.9
	c2.8,8.8,5,17.8,7.2,26.8v0c1.3,7.1,3.3,14,6,20.6c4.5-18.1,9-36.1,13.6-54.2c-6.7-8.2-14.1-16.3-20.3-25.3h0
	c-4.3-6.5-7.7-13.6-10.1-21.1c-1-3.7-0.4-7.7,1.5-11c3.9-5.5,8.2-10.6,12.9-15.5c4.6,0.3,8.4,3.7,9.3,8.3c3,8.7,5.7,17.6,8.2,26.5
	c1.8,6.4,3.2,13,5.1,21.1c11.2-18.1,21.5-34.8,32.1-51.9h0c-12.4-11.5-19.3-27.7-18.8-44.6c0-4.3,0.8-8.5,2.4-12.4
	c0.4-2.2,2.1-4,4.4-4.4c2.2-0.4,4.5,0.7,5.6,2.7c2.7,3.8,5.1,7.8,7.2,12c0.6-1.8,1.1-3.4,1.7-5.1c1.4-3.8,3-7.5,8.1-6.7
	c5.1,0.8,8.9,5.3,8.7,10.5c0.1,9.3-1.9,18.5-5.8,27c-1,1.6-1.4,3.4-1.3,5.3c4.2-4.6,8.6-9,12.3-13.9l0,0c1.5-2.3,2.1-5,1.8-7.7
	c-0.8-14,2.7-27.9,10.1-39.8c3.8-6.9,9.2-10.4,12.1-8.4c5,3.4,4.2,8.5,3.1,13.6c-0.3,1.6-0.3,3.3-0.6,6.3c4.1-3.3,7-5.9,10.1-8.1
	c2.5-2.8,6.8-3.1,9.7-0.6c2.1,2.7,3.3,6,3.2,9.4c-0.2,3.2-1.6,6.2-3.9,8.5c-5,5.6-10.7,10.4-16.9,14.4c-8,4.4-14.1,12-23.7,13.7v0
	c-1,0.4-1.8,1.2-2.4,2.1c-7.3,8.5-13.8,17.7-19.4,27.3c4-0.5,8-1.1,12-1.6v0c4.7-1.4,9.6,0.9,11.6,5.3c1.3,4.3-0.6,8.9-4.6,11
	c-1.9,1.5-3.7,3.1-6,5h0c0.8,1.3,1.7,2.4,2.7,3.5c3.1,2.8,5.7,5.8,2.4,10h0c-2.3,3.9-7.1,5.5-11.2,3.6c-5.1-2.5-10-5.4-14.7-8.5
	c-2.6-1.7-5-3.8-8.3-6.3c-7.4,9.3-13.3,19.6-17.6,30.6c4.3-2.8,7.5-4.9,12.1-8c0.8,4.6,1.3,7.8,2,11.5c0.3,0.3,0.7,0.6,1.1,0.7
	c3.3,0.2,6.6,1.2,9.5,2.8c3,3.3,0.3,7.4-2,10.7h0c-4.4,6.6-10.7,11.6-18,14.6c-2.6,1.2-5.2,2.2-7.9,3.2c-4.3,1.1-8.1,3.6-10.9,7.1
	c-2.8,3.5-4.4,7.7-4.5,12.2c-1.4,7.9-2.1,15.8-2.1,23.8c4.2-4.8,8.4-9.7,12.5-14.5l2.6,0.7l1.7,12.3c1.9,0.5,3.7,1.2,5.4,2.2
	c1.8,0.9,3.1,2.5,3.6,4.5c0.5,2,0,4-1.3,5.6c-3.6,5.2-7.7,10.2-11.7,15.2c-4.5,5.5-8.8,11.1-13.7,16.3h0c-4.2,4.5-6.4,10.4-6.3,16.5
	c-0.2,11.7,0,23.4,0,34.7l11.7-24.7c13.1,3.6,13.8,6.9,7.8,28.5c2.8,3.3,7,6.2,7.5,9.6c0.5,4.9-0.5,9.9-2.8,14.3
	c-5.8,10.5-14.2,19.3-24.4,25.6c1.7,19.6,3.5,39.3,5.2,59l1.3-0.1c0.9-8.2,1.4-16.5,2.7-24.7c5.1-27.4,14.8-53.7,28.5-77.9
	c3-4.8,3.6-10.6,1.7-15.9c-3.8-13.1-4.6-26.8-2.6-40.3c1.2-7.6,4.7-14.6,10.1-20.1c3.3,3.6,5.9,6.5,8.7,9.4c2.1-1.7,4.7-2.7,7.3-3.1
	c2.3,2,3.9,4.9,4.3,7.9c0.7,4.9,1.2,9.8,1.3,14.7c6.8-8.2,12.9-15.1,18.4-22.5h0c0.7-2.3,0.6-4.7-0.3-6.9c-2.8-13-2.3-26.4,1.4-39.1
	c1.7-7.9,6.7-14.8,13.6-19c2.3,1.7,4.8,3.6,7.5,5.5c0.2,0.1,0.5,0.1,0.7,0c3.6-2.1,7.9-4.3,9.9,0.8c0.7,3.7,0.4,7.5-1.1,11
	c-1.8,6.4-4.2,12.5-7.2,21c12.8-11.5,24-21.2,34.8-31.4v0c1.7-2.2,2.6-4.9,2.3-7.7c-0.1-12.5,2.4-24.9,7.3-36.4
	c2.6-7.5,6.7-13.6,16.3-12h0c1.1,0,2.1-0.1,3.1-0.5c9.1-2.1,9.1-2.1,12.4,6.9l0.1-0.2c-8.5,9.5-15.9,20.1-21.8,31.4
	C354.1,191.6,359,188.5,364,185.4L364,185.4z M198.9,314.3l-2.9-0.1c-10.2,14.3-10.8,31.4-12.1,48.4c7.2-12.9,12.7-26.6,16.5-40.9
	C200.4,319.2,199.9,316.7,198.9,314.3L198.9,314.3z M225.2,51.5c-6.7,14.3-2.2,36.2,8.3,43.9C231.1,81,234.6,66,225.2,51.5z
	 M271.5,260.7c1.3-1.2,2.3-2.6,3.2-4.2c1.6-11.5,5-22.8,9.9-33.3c0.9-1.5,1.1-3.4,0.6-5c-0.6-1.7-1.9-3-3.6-3.6
	C269.7,227.3,270.4,242.6,271.5,260.7L271.5,260.7z M267.9,65.9c8.5-10.7,14.1-28.1,12.7-37.9C271.2,38.2,266.6,52,267.9,65.9z
	 M231.4,276.9l-3.5-0.7c-6.7,13.5-7.4,29.2-2.2,43.3C227.6,305.4,229.5,291.1,231.4,276.9L231.4,276.9z M246.2,55
	c-8.3,9.9-7.9,21.3-6.2,33C247.6,78.8,250,66.3,246.2,55z M226.7,396.2c-12,1.1-20.7,9.9-25.1,23.5
	C211.5,413.7,222.5,409.9,226.7,396.2z M335,203.5l2.6,0.5c3.8-12.8,7.6-25.7,11.3-38.5l-2.2-0.7C336.8,175.9,335.4,189.6,335,203.5
	L335,203.5z M237.3,118.9c5.3,6.8,5.5,7.3,9.1,5.9c6-2.2,12.7-3.9,14.8-11.6C250.9,111.2,248.6,111.8,237.3,118.9L237.3,118.9z
	 M282.5,61.2c17-8.8,22.1-15.2,19.8-24.6C292.2,41.2,284.8,50.3,282.5,61.2z M182.2,109.5c-0.9,1.5-1.5,3.2-1.7,5
	c5.3,13.3,10.7,26.5,16.7,41.1C193.6,130,191,121.8,182.2,109.5L182.2,109.5z M165.2,182l-2.5,0.7c-3.3,14.5-1.7,15.6,12,28.9
	C171.5,201.7,168.4,191.9,165.2,182L165.2,182z M332.4,245.1c-1.3-1.1-2.8-1.9-4.5-2.3c-8.9,1.5-17.7,3.3-26.5,5
	C312,251.8,322.2,253.7,332.4,245.1L332.4,245.1z M203.3,346.2c-7.9,4.3-13.1,13.8-14,26.3C196.4,364.5,205,358.4,203.3,346.2z
	 M199.6,408.4c7.1-8.8,15.9-16.6,19.2-30.5h0C208.6,385,201.7,396,199.6,408.4L199.6,408.4z M226.5,344.9
	c10.9-4.6,19.9-12.6,25.8-22.8C241.9,327.3,233,335.1,226.5,344.9z M162,283.6c-1.4,12.5,1,25.1,6.9,36.1
	C171.3,305.3,166,294.5,162,283.6z M243.6,283.4l-2.4-0.5c-2.9,8.9-5.8,17.7-8.7,26.6c4.1-2.9,7.2-6.9,9.2-11.5
	C243.6,293.4,244.3,288.4,243.6,283.4L243.6,283.4z M171.7,121.4c-0.9,5-0.5,10.1,1.2,14.9c1.8,4.8,4.8,8.9,8.7,12.1
	C178.5,139.9,175.4,131.5,171.7,121.4L171.7,121.4z M215.1,184.6L215.1,184.6c6.8-2,12.2-7.2,14.5-13.9
	C219.6,171.1,217.6,178.1,215.1,184.6L215.1,184.6z M209.5,246.8l-1.7-1.5c-8.6,4.7-10.2,7.1-12,19.2
	C201.1,257.7,205.3,252.2,209.5,246.8L209.5,246.8z M217,166.4c-0.9-0.4-1.8-0.9-2.7-1.3c-4.2,8-10.7,14.9-11.1,24.9
	C207.7,182.1,212.4,174.3,217,166.4L217,166.4z M200.1,239.3l-2.7-1.6c-5,5.1-7.8,11.9-7.7,19C193.1,250.9,196.6,245.1,200.1,239.3
	L200.1,239.3z M256.1,137.1L256.1,137.1c-4.3-3.7-9.9-5.4-15.5-4.9C246.2,136.7,250,140.5,256.1,137.1L256.1,137.1z M180.7,125.5
	l-1.9,0.7c2.6,6.9,5.2,13.9,7.8,20.8l2.2-0.8C186.1,139.3,183.4,132.4,180.7,125.5L180.7,125.5z M295.4,221.9l-2-1.1
	c-5,4-5.1,9.8-3.4,16.2C291.8,232,293.6,227,295.4,221.9L295.4,221.9z M154.8,393.3l2.8-1.9c-2.3-3.7-4.5-7.4-6.8-11
	c-0.9,0.5-1.7,1-2.6,1.5C150.4,385.7,152.6,389.5,154.8,393.3L154.8,393.3z M240.5,351.3l-0.9-3.7c-3.7,1-7.4,1.9-11.1,2.9l0.5,2.2
	L240.5,351.3z M155.9,404.6l1.1-2.5c-2.2-3.1-4.8-4.9-10.9-1.5C150.4,402.3,153.1,403.4,155.9,404.6L155.9,404.6z M315.7,237.1
	c4.4,0,9,0.4,9.6-6L315.7,237.1z M163.1,217.2l-1.9,0.8c1.8,4.2,3.6,8.5,5.4,12.7l1.8-0.7C166.7,225.7,164.9,221.4,163.1,217.2
	L163.1,217.2z M354.8,169.4l1.5,1c1.4-2,2.9-3.9,4.3-5.9l-1.8-1.3L354.8,169.4z"/>
<path d="M128.8,255l-8.2-17.1c-14.1-0.5-26-8.4-37.7-16.5c-3.6-2.5-6.8-4.6-3.7-10.3c1.4-2.6-0.7-7.1-1.3-11.2v0
	c3.3-1.4,6.9-1.6,10.4-0.7c3.5,0.9,6.5,2.9,8.7,5.7c3,3.4,5.1,7.7,7.9,11.4c2.8,3.9,5.9,7.6,8.9,11.4l1.8-1.1
	c-0.6-2.6-1.4-5.2-2.4-7.6c-5.3-10.9-10.9-21.6-16-32.6c-1.6-4.1-5.7-6.6-10.1-6.2c-11.8-0.8-23.2-4.7-33-11.2
	c-3.2-2.1-5.6-5.1-6.9-8.7c0.6-2.8,1.8-5.5,3.7-7.7c-3-5.8-11.9-8.6-11.6-17.8c6.2-5.1,11.9-0.7,18.9-0.2
	c-3.9-3.6-7.7-7.3-11.7-10.7l0,0c-8.9-7.2-16.1-16.3-21-26.6c-3.3-5.9-3.7-13-1.2-19.3c3.1,0.7,6,1.4,9.6,2.2
	c1.3-2.9,2.8-6.3,4.3-9.5v0c4.7-0.5,8.9,2.8,9.6,7.5c3,8.4,5.4,16.9,7.9,25.5c1.8,6.5,3.6,13.1,4.8,19.7c1.8,9.8,8.6,15.8,16.9,21.1
	c-3-6.2-6-12.4-9-18.7c-3-6.4-7.4-12.4-5.6-20.6h0c2.3-1.3,5.1-1.5,7.6-0.7c2.5,0.8,4.6,2.7,5.6,5.1c0.9,2.7,3.6,4.5,6.5,4.3
	c4.8-0.5,6.7,3,8,7h0c2.7,10.4,3.2,21.2,1.7,31.8c-1.3,15.9-0.8,17.6,10.5,32.6c0.5-3.3,0.8-5.9,1.2-8.5h0c-0.1-3.8,2.6-7,6.3-7.5
	c3.4-0.1,6.8,1.1,9.4,3.3c3,3.7,5.7,7.7,7.8,11.9c1.7-1.7,3.7-3.1,5.9-4c2.6-0.8,5.4-0.7,7.9,0.5c1.8,1.9,2.6,4.6,2.2,7.2
	c-1.1,5.6-2.8,11-5,16.2c-2.6,6.7-6,12.9-10.2,18.7c-2.3,2.7-3.7,6-4,9.6c-0.3,3.5,0.5,7.1,2.2,10.1c1.2,3.6,2.2,7.4,2.8,11.2
	C129.2,254.4,129,254.7,128.8,255L128.8,255z M112.4,173.4c-6.1,10.7-3.5,24.5,7.7,43.6C125.9,198.4,122.8,179.7,112.4,173.4z
	 M53.4,159.6c6.7,9.4,17.6,14.8,29.1,14.4c-0.1-1.4-0.6-2.7-1.4-3.8c-7.4-3.9-15-7.6-22.6-11.1v0C56.8,158.8,55.1,159,53.4,159.6
	L53.4,159.6z M44.2,78.9c-1.1,0.3-2.2,0.6-3.3,0.9C37,93.2,49.5,101,51.1,112.5l2.4-0.8C50.4,100.8,47.3,89.9,44.2,78.9L44.2,78.9z
	 M45.3,137.4c8.2,11.8,14.9,16.3,24.5,16.6C63.4,146.3,57.4,139,45.3,137.4z M127.8,211c7.3-7.4,10.9-17.6,10-27.9
	C129.1,191.5,128.4,200.7,127.8,211z M85.9,120.3l-2.4-0.3c-2.9,4.4-1.8,12.1,4.6,21.7C87.4,134.5,86.7,127.4,85.9,120.3L85.9,120.3
	z M30,85.7c-0.6,9.7,0.3,12.1,8.4,20.9C34.9,99,37.7,90.6,30,85.7L30,85.7z M84.4,204c2,5.6,6.8,9.7,12.5,10.9
	C93,206.6,93,206.6,84.4,204z M75.1,119l-4.1-8.9C70.1,116.5,70.1,116.5,75.1,119z"/>
<path d="M148.6,314.4c-4.4-3.3-9.1-6.3-14-8.9c-9.2-3.5-17.3-9.5-23.3-17.4l7-3.1c-3.8-6.2-7.2-12.7-10.3-19.3
	c-1.2-3.1-0.7-6.6,1.1-9.4c3.1-1.3,6.7-1,9.5,0.9c4.2,3.7,7.8,8.1,10.6,12.9c2.2,4.5,4.8,8.8,7.7,12.9c-2.7-9.3-5.4-18.6-8.1-28
	c0.2-0.3,0.4-0.6,0.6-1c0.7-7.2,1.5-14.5,2.2-22.2c8.9,0.4,9.4,7,11.1,12.5c8.9,2.6,11.3,6.2,10,16c-1.2,9.1-2.7,18.2-4.3,27.2
	c-1.1,6.6-3,13,0.3,19.7c0.4,2.4,0.3,4.9-0.3,7.3L148.6,314.4z M131.5,290.3c-7.3-22.8-10.2-27.1-19.5-29.8
	C112.9,274.6,123,282,131.5,290.3z M136.6,257.8l2.8-0.4c-0.7-4.6-1.4-9.3-2.1-13.9l-2,0.3C135.7,248.5,136.2,253.2,136.6,257.8
	L136.6,257.8z M147.7,256l-3.2-0.3l-0.7,14.2l2,0.1C146.4,265.3,147.1,260.6,147.7,256L147.7,256z M126.4,296.2l1-2.1l-5.8-3.4
	l-0.7,1.2C122.7,293.4,124.6,294.8,126.4,296.2L126.4,296.2z"/>
<path d="M148.4,314.5c4.3,13.5,8.7,27,13,40.5c2.4,7.7,4.6,15.5,7.4,24.8c-14.3-11.5-27-21.6-39.6-32h0c-2.5-2-4.6-4.5-6.1-7.3
	c-3-3.9-2.5-9.3,1-12.7c3.5-3.9,9.5-4.4,13.7-1.2c3.6,2.9,6.8,6.2,9.6,9.8c2,2.3,3.7,5,6.2,8.4c-1.8-10.9-3.4-20.7-5-30.4
	L148.4,314.5z M130.8,342.6l1.2-1.2l-2.9-3.2l-0.9,0.8L130.8,342.6z"/>
<path d="M368.9,164.8c3.8-8.4,9.7-15.8,17.1-21.3c6.8-5.1,10-4.1,13.4,3.7c0.8,1.8,2,3.4,3.6,4.6c8.2,6.1,8.6,8.3,1.6,15.7
	c-9.1,10.1-21.8,16.3-35.4,17.3c-1.8,0.1-3.5,0.4-5.3,0.6c1.7-6.9,3.4-13.9,5.1-20.8L368.9,164.8z M375.4,169.3
	c7.9-5.7,17-10.6,18.5-23.7C383.4,151.5,376.8,158.3,375.4,169.3L375.4,169.3z M384.3,174c8.1-2.5,15-7.9,19.2-15.2
	C393.3,159.3,392.7,159.8,384.3,174z"/>
</svg>
