<svg xmlns="http://www.w3.org/2000/svg" width="117" height="76.8098" viewBox="0 0 117 76.8098"><path d="M32.859,71.0991c.2938-.1689.4665-.6761.8654-.4922.124.0423.39-.2666.3815.0124.4366-.0095.6146-.6745.886-.9682.3011-.31.8266.569,1.3.0943.3442.2639.9137.9372,1.2962.3325-.0849-.3136.4947.006.5742-.316.4277-.1619.6094-.9118,1.1651-.6684.1346-.3717-.0645-.7076.6113-.7957.1429-.4647,1.5816.7325,1.0907-.7056.0865-.34.5559-.3522.8534-.2914a.6081.6081,0,0,0,.7672.5782c.5461-.0161,1.4953-.5375,1.62.279.0833.25.373.2.5784.2708.3668.1239-.0308.617.2419.73.43.98.7158-.6287,1.3371-.1682.4475.3509.7351.9153,1.2511.34.4568.1546.9051.3753,1.2634.2216.0829-.4737-.2836-.673.107-1.1361-.1918-.6419.49-.8334.6848-1.4193.62-.18,1.5636.065,2.0959-.1639.0032-.4575.3762-.2773.4555-.5375-.0092-.3613-.0061-.8105.5084-.9556a2.1647,2.1647,0,0,1,.0125-1.9526c2.596-.1958,1.2724-1.0765,2.6576-1.3128.3315-.3324.0373-.608.1068-.96.1294-.2033.3434-.3294.3611-.5659a3.4588,3.4588,0,0,1-.6646-1.5177.8091.8091,0,0,1-.6563-.7958c-.9188-.1658-.7552-.4827-.0983-1.05.9116-1.2248.91-.3272,1.92-.7544.8-.0029.6357-1.0109,1.1811-1.3376.3353.0748.307-.2008.64-.2131a1.7463,1.7463,0,0,1,.0654-.64c.3534-.0459.5308-.01.8123-.32.4758-.1.3351-.4034.4019-.6972.03-.4052-.4259-.2484-.6644-.484.3-.3131.3549-.6461.87-.6068.4494-.194.7688-1.139,1.2878-.8863.567-.0187,1.0806-.5544,1.6572-.4019a1.3026,1.3026,0,0,1,.2786,1.1813c-.2069.3365.3523.4295.0988.7466-.0132.741.2651,2.0686-.1967,2.7811-1.3834,1.2329.4433,1.7092-.328,2.5266a3.69,3.69,0,0,0,2.1408,1.2141,3.8545,3.8545,0,0,0,1.6979,2.24c-.5332.39.2961.5957.23,1.0909.9-.1658,1.5461.7791,2.4776.8612.3133-1.451.86-.1333,1.5749.0987,3.5065.0387.3886,2.213.1311,3.6749,1.1578-.098,2.7068.9057,2.56,2.0017a2.3085,2.3085,0,0,1,.3933,3.3143c1.8293-1.1346,2.4416,2.1374,3.3473-1.0665,1.0737-1.0148.7881-2.0538-.7384-2.1987-.0458-.5882-.0615-1.2657-.7874-1.4926,2.121-1.3186-.3995-1.8049.9844-2.79.2619-.485,1.3254-.0716,1.1978-.7873.4864-.3884-.0353-.9892-.1805-1.444,1.098-.3286,1.5783-1.73,2.5922-1.8379.4948-.2235.3417-.8836.5416-1.3122a.5825.5825,0,0,0,.4429-.6728c.9247-.1258.5666-.9479.9354-1.7064.8827-1.0638,1.24-2.2246.3772-3.2484.5858-1.8684-.5994-1.34-.6729-2.6251,1.2972-.1977.0461-1.9139,1.51-1.9853.4413.0795,1.8815-.4312,1.3618.3444,1.3809,2.0074.9192.1136,2.1-.394.3758-.3025.0661.5438.1233.7222-.2027-.022-.3178-.0133-.2545.164.8916.0032-.2985,1.8333.271,2.338.2186.6546-.1716,1.3226.533,1.5667.6879.2031.6441,1.2638,1.0831,1.78.6817.6507,1.62.6751,2.584,1.0339.6179-.7147,1.1413-.2124,1.8375-.2378.5587-1.09-.2858-2.8118,1.526-1.4358a4.89,4.89,0,0,1,2.1082-1.0667c.3679-.0484,1.0526-.9712,1.411-.016.0937-.157.7612-.7619.7387-.2627.2862.7341,1.4206.6647.6641,1.5175-.2069.21.1676.62.3939.5251-.028.3722-.2513.6037-.0985.9926.7663.2965,1.9546.6826,1.3617,1.7147-.4665.3413.5039.7984.8286.2951.5256-.0727,1.2866.3585,1.4932-.3773,1.4978-1.13-.69-2.1291-1.0828-3.265a.887.887,0,0,1,.5742-.9844.6192.6192,0,0,1,.443-.886c.56.2426.4478-.8235.23-1.0172-.24.3531-.3668-.8325-.9149-.4716-.0346.15-.1168.1182-.2422.07-.1791.0933-.1753.2908-.41.18-.3956.173-.2085-.3586-.6481-.1148-.2035-.1483-.12-.69-.5332-.5578-.305-.3779.4157-.5288.2132-.8942-.2766-.3368-.0441-.572-.164-.9107.2459-.2425-.2984-.5522.1724-.6972a3.2316,3.2316,0,0,0-.14-1.0256c.5291.0367.5478-.5748.9357-.7875-.4379-.51.3752-.1943.3773-.6482-.2654-1.48.4568-.3358,1.28-1.0418.2348.0865.7808-.541.9351-.3035.3388.1287.6337.33.7381-.2134.5032-.4745.41.4194.8126.6811a1.1562,1.1562,0,0,0-.3283,1.1074.1976.1976,0,0,0,.3854.0738.759.759,0,0,1,.8042.8532c.3436.3.8223-.1862,1.0171.3036.3595-.0792.2318-.5442.6235-.4676a3.5115,3.5115,0,0,1,.8122.443.49.49,0,0,1,.8529.0657c.3626.7709,1.1215-.143,1.0094-.6727.2483-.67.1684-1.2252.41-1.8706-1.4157-1.7344-2.0559.1409-2.4117-1.5584a6.7026,6.7026,0,0,0-.1807-.9682c.3158.0192.33-.41.46-.6235.13.027.3858-.0446.3033-.2544-.2173-.78-.4489-1.0586.6157-1.3782.2284-.6727-.5193-1.0867-.2958-1.5586.8419.0671.4489-1.181.8859-1.3291a3.181,3.181,0,0,0-.0323-1.7309,4.2238,4.2238,0,0,0,.5657-1.9114c-.5092-.4275-1.8619-.4154-1.4684-1.2631-.468-.1527-.6866-1.2077-1.1567-.7058-.2685.3124-.952-.0307-.9267.6155a1.96,1.96,0,0,0-.32.8694c-.2931.0422-.423.0446-.4267.3282.4933,1.2272-.754.5151-1.6243.4183a1.633,1.633,0,0,1-.3442,1.2142,2.06,2.06,0,0,1,.1391,1.0583c-.8355-.1926-1.0192.3742-1.657.55-.38-.0882-1.23.4773-1.5013.14-.2649-.4388-.3981-.6179-1.001-.517a4.2354,4.2354,0,0,0-.9517-1.3946.7145.7145,0,0,1-.9759-.5006c-.8988.4225-1.5218-.4263-2.3709-.681-.3973-1.0007.4258-1.5914.1972-2.33-.7394-.1976.1733-.7491-.632-.7465-.4333.7174-1.3663-.11-1.8048-.55-.3132-.1049-.8322.2733-.96-.1149a2.1125,2.1125,0,0,1-1.5013-.6972,6.012,6.012,0,0,0-1.3126.3528c-.3064-.0755-.5163-.4866-.8039-.1889-.6857.3982-.8153.2058-1.2879-.2627-.518.2322-.99.2038-1.2881.5415-.9666-1.3215,2.1365-.4418.1063-4.192.0613-2.6524,1.991-4.8127,3.2487-6.9568,2.4551.0466-.271-1.9344.7879-3.0679-.8946-.2516-1.5411-.3059-1.8213-1.0662C87.83,11.1567,79.8435,6.545,75.0706,8.6361c-.8728.4122-2.15,1.114-2.301-.2065-.394-.6885-.5223.0751-.3772-.81-.2792-.0865.2206-.1743.2787-.0616-.2593.19.5036.1206.08-.1988.2323-.2409-.42-.0634-.5126-.0556-.0768-.11-.0264-.3239-.1888-.3361-.1574-.0656-.2-.0211-.324.0523-.0451-.0206-.2882-.0357-.1148-.1242.231-.2245-.1793-.0323-.2255-.31-.2129.0227-.2127-.0936-.0473-.1617.04-.1208-.1076-.2377-.1228-.3633-.1737.1454-.2419.142-.15.4-.1118-.0765-.3716-.0208-.3651.0737a1.0628,1.0628,0,0,1-.34.2584.4933.4933,0,0,1-.0043.39,1.36,1.36,0,0,1,.97.4739c-.2784.08-.3406.1741-.4018.4758.0214.4633-1.0679-.6526-1.55-.4431-.1517-.45.49-1.0147-.2505-1.03-.3776-.5.124-.88.5662-.9515-.8744-1.6336-1.167.9545-1.4417-1.29-.0108-.146-.1992-.0354-.3323-.1068-.0242-.1506-.3106-.1286-.1806-.2294-.2925-.6988-.3139.4577-.2766.7156.2847-.0911-.305.636-.49.525-.2792-.3148-.0383-.5868-.2934-.8489.0388-.2158.2277-.34.0736-.5477-.37-.42-.9573.2477-1.0909-.2686-.3475-.2026-.3767.6153.0492.59.115.7926-.3457.0568-.6922.237-.2379.1368-.5618.1292-.62.44-.2578-.36-.8379-.0086-1.1116.2172-.15.4332-.6871.7055-.5005,1.19.1816.0013,0,.1826.0575.3-.2879-.0347-.282.0861-.4225.1356-1.6188,1.0824.1468.6153-.7383,1.6076.0611.2535.1986.256.4061.2175.252.2754.6478.6541.9613.384.2016-.1147-.1333.4848.1339.5756.1329.1381.2713-.037.0491-.0612.003-.0818.1938-.0387.1477-.1479-.1974.0017-.07-.2339.0677-.1167.0293.158.0613.1949.1979.1752.0636.1781.1678.0487.1168-.0912.2782-.032.589.0526.9107.04.1422-.1192-.0764-.2739-.0462-.4009-.2212-.505.4907.3488.2133-.2092.1-.1836.3963-.2306.5989-.25-.0363.2285.2056.17.33.3036.8219-.6271.48-.2679,1.206.2811.15.3222-.4593.8469-.5929.4511.1484-.0034.3392-.0952.2421-.2851-.1981-.2487-.2045-.0062-.3343.1478-.3516.28.3212.9471.0513,1.255-.4957.6888-1.392.4787-.6554-.078-.0822-.1752-.3076-.1939-.3865-.4624-.1488-.0411-.4618-.0111-.44-.1363a.4279.4279,0,0,0-.7536.2811c-.257.2511-.9447.3343-.9436.5968-.6064.0963-.0116.9816.4881.5657.3975.4411-1.006.5743-1.3738.7386-.8871-.5894-3.2569.71-3.2161-1.3951-.492-.243-1.2579-.4383-1.69.0331-.0357-.25-.2561-.7467-.6071-.533-.367.27-.6332,1.1242-1.1895.8448-.3383.5014-.72.3219-1.1405.6643.0579.5621-.39.9815-.7956.4678-.5917.2988-1.1392.6685-1.8048.2869-.3083.174-.7925-.1874-1.009.1151.0036.5542-.54.1292-.87.1887-.3384-.4727.076-1.0549-.5744-1.4274a2.698,2.698,0,0,0-1.2221.2134c-.3762-.3844-.72-.0215-.6972.443A5.6066,5.6066,0,0,1,44.16,13.3091c-.2684-.3025-1.3831-1.2242-.5826-.9192.2433-.1342.4354-.28.6728-.1269-.09-.0872.1738-.4234.16-.1683.5618-.2071-.8956-.6156.2225-1.1022-.1924-.0667-.55.4758-.9116.1432-.4931-.1685-.5207.8632-1.1938.6224.1016-.2174-.35-.595-.4265-.3034.0312.657-.485.1131-.73.5375.19.2911-.5513.5228-.7627.6931-.0747.3289-.61.1343-.6348.5487.13.3969.24.3013.51.0471.4375.1318.1933.4893.047.7108-.1185-.21-.4744.1655-.5147-.2062-.1027.1334.3675.5473.2643.8193-.6364.6574-.7907.7435-1.5339.1351-.3313-.3484-.4992.1836-.607.4761.2105-.1276.5.0448.64.2133.56.0072-.2867.5311-.484.5822.0224.305-.518.7092-.7629.7878-.6219.3469-1.229-.2978-1.7884-.1232a3.5382,3.5382,0,0,0-1.7557.6563c-.4271-1.1886-.891-.1779-1.8376-.8532.7442-2.9435.97-.8374-.7876-2.0424a6.479,6.479,0,0,0-1.4931.5c-1.0431-1.0074-2.9533-.2172-1.788.9111-.0585.2857.0091.6287-.4844.4592-.3879.2235-.3643.6345-.927.5576.0992.6355.015,1.051-.6561,1.0174.2963.5568-.7983.91-.8121,1.608-.0292.4442.3373-.0353.5578,0a4.2721,4.2721,0,0,0,2.4774-.32c.3212-.3881.673.1947,1.0091.2049.0065.5267.4366.5079.1888.98-2.2453.8734-.2334-.002-1.333,1.2267-.0713.3047-.6079-.0463-.6073.2376-.23.1332-.6237-.1078-.8327.23.1847.344.3687.8032.1313,1.1444.1553.3164.2865.3848-.0821.5824-.317.6176-1.3368.8725-1.6652,1.6571.0581.3479-1.4172.7592-.3448.8819a7.4146,7.4146,0,0,1-2.8424,1.9483c.3884.79-.1162.6007-.6031.7671-.4.2289-.0785.5709-.5578.7383.2161.4222.9962.4223.3323.804-.2628.3462-.7861.2355-1.0992.5866-.3.4521-.4337,1.0219-.9846,1.2509-.7082-.0758-1.2418.4405-1.9237.64-.8147.2392-1.2363-.122-1.7144.7877-1.839,1.6788,1.328,1.3588-.8289,4.8648-.03.32.422.65.6485.8038-.2494.63-.5652,1.2884-1.3538,1.3126-.3724.1054-.158.4776-.3937.6973-.143-.0256-.5035-.0247-.336.2379a13.9294,13.9294,0,0,0-4.3153,3.4457A12.1655,12.1655,0,0,0,6.8,46.915c.0513.1512,1.5572,1.1176.9271,1.263-.1694.408-1.0555,1.0651-1.2307,2.0269-.47.34-.7452.8532-.2783,1.386-1.0994,1.04.5543,1.1263,1.2054,1.8378.1608.4444,1.2332.4232.5926,1.0049a.9231.9231,0,0,1-.5434.72c.0124.0953.0163.2876-.0944.3549a1.65,1.65,0,0,0-.34,1.1649c-.69.1532-.1933.8766.0123,1.1341.2547.35-.1477.6548-.4451.8265-.0584-.3677-.5635-.28-.7483-.1189-.4751-.4587-.3792.7447-.8781.09-.2242.2382-.598.2717-.7177.55-.1556.108-.3738-.1434-.2543.25-.5091-.3311-.5036.4236-.6151.5331-.3163.2929,1.0336.3177.59.7958a4.4789,4.4789,0,0,0-.8284,1.6633c.1239-.11.4388-.04.5169-.24.1115-.0919.0784-.3315.2769-.2624.54-.11,1.0087.3689,1.3678.0246.3654-.7305,1.2795.0211,1.8951.0572a9.2208,9.2208,0,0,0,1.4849-.8856c-.1742-.5076.1647-.5187.3858-.8781.7132-.6616,2.5044-.6659,2.4854-2.0262-.0054-.3029-.0682-.0883-.3362-.1969-.0891-.088.1445-.358-.0657-.2461-.4789.9368-.93.194-1.3206-.46-.013-.3576.6059-.4524.2457-.894-1.9107-1.3554,2.6122-4.0949,4.2412-3.921,1.7564-2.3308,12.1346-1.7738,8.5,1.7061-.7653.4752.6519,1.6587.9348,1.7637.3141.424.4184.85.9437.8776.354,1.2067-.9732,1.8852-1.3454,2.9863.5124.6877-.1982,1.1516-.2955,1.7308.1807,1.1256,1.29.6653,2.1659,1.05,1.0121-.3242-.29.9624.2461,1.3207-.0229.4313-.5605.7873-.3777,1.2307.473.738.9923-.8531,1.4933-.4842-.0519.6259,1.1051,1.1369,1.1073,1.9854a1.2106,1.2106,0,0,1,.8862,1.0009c-.8458.2776.3434.6242.3939.9021-.262.7251.61,1.1146.6195,1.7064a3.2623,3.2623,0,0,1,.8959,1.4214c.5609.127.6529-.4626,1.0809-.5805.1588-.2542.5805-.0123.3426.1375C32.3819,71.6083,32.8765,71.94,32.859,71.0991Z" fill="#f8f7f7" opacity="0.42"/><rect x="39" y="26" width="11" height="12" fill="none" stroke="#f05433" stroke-miterlimit="10" stroke-width="2"/><path d="M59.0849,34.891a1.7492,1.7492,0,0,0,.2325.7283,1.4843,1.4843,0,0,0,.4649.4808,1.88,1.88,0,0,0,.6464.2606,3.4331,3.4331,0,0,0,.7791.07,2.9116,2.9116,0,0,0,.8356-.1264,1.6438,1.6438,0,0,0,.5685-.3054,1.1433,1.1433,0,0,0,.3191-.4343,1.2552,1.2552,0,0,0,.095-.5149.9326.9326,0,0,0-.2046-.6076,1.457,1.457,0,0,0-.508-.3722,3.3076,3.3076,0,0,0-.7116-.2228c-.2671-.0541-.541-.1072-.8214-.1576s-.5536-.1123-.8212-.1859a2.6913,2.6913,0,0,1-.7136-.2991,1.5948,1.5948,0,0,1-.51-.4982,1.4634,1.4634,0,0,1-.2084-.7835,1.437,1.437,0,0,1,.142-.6507,1.6449,1.6449,0,0,1,.452-.5675,2.361,2.361,0,0,1,.7639-.4032,3.5958,3.5958,0,0,1,1.0669-.1669,3.3709,3.3709,0,0,1,1.0778.1294,2.1869,2.1869,0,0,1,.7706.4027,1.7022,1.7022,0,0,1,.4678.6059,1.858,1.858,0,0,1,.1673.7436l-.6557.0146a1.312,1.312,0,0,0-.16-.636,1.2392,1.2392,0,0,0-.4078-.4319,1.7849,1.7849,0,0,0-.58-.24,2.7808,2.7808,0,0,0-.6682-.0677,2.6281,2.6281,0,0,0-.88.15,1.5625,1.5625,0,0,0-.5635.3505,1.11,1.11,0,0,0-.2825.4633.9923.9923,0,0,0-.0206.5065.85.85,0,0,0,.2942.4961,1.8107,1.8107,0,0,0,.5519.3,4.4371,4.4371,0,0,0,.7153.1829c.26.0451.5251.0942.7962.1444s.5321.1138.7866.1861a2.501,2.501,0,0,1,.6769.3,1.5054,1.5054,0,0,1,.4816.4978,1.5793,1.5793,0,0,1,.193.7753,1.611,1.611,0,0,1-.6671,1.4092,3.34,3.34,0,0,1-1.9473.5366,4.0313,4.0313,0,0,1-1.0523-.1074,2.4345,2.4345,0,0,1-.8459-.3778,1.8411,1.8411,0,0,1-.5647-.6449,2.0256,2.0256,0,0,1-.2156-.9184Z" fill="#fff1e7"/><path d="M68.5735,34.0105a1.5451,1.5451,0,0,0-.47-.8667A1.6217,1.6217,0,0,0,67.14,32.75a1.7217,1.7217,0,0,0-.811.09,1.537,1.537,0,0,0-.5888.3958,1.9336,1.9336,0,0,0-.3761.6042,2.5667,2.5667,0,0,0-.1738.7008,2.6941,2.6941,0,0,0,.0221.7262,1.8113,1.8113,0,0,0,.2421.6581,1.5317,1.5317,0,0,0,.4963.499,1.7941,1.7941,0,0,0,.7864.2477,1.6693,1.6693,0,0,0,1.1138-.2206,1.4961,1.4961,0,0,0,.6111-.86l.6419.0662a2.4665,2.4665,0,0,1-.3277.6764,1.89,1.89,0,0,1-.5083.5,1.9738,1.9738,0,0,1-.6936.2854,3.1587,3.1587,0,0,1-1.9416-.2623,2.0223,2.0223,0,0,1-.6908-.5907,2.1081,2.1081,0,0,1-.3524-.8195,3.1877,3.1877,0,0,1-.0416-.9726,2.7881,2.7881,0,0,1,.25-.91,2.36,2.36,0,0,1,.5378-.7358,2.186,2.186,0,0,1,.8041-.4649,2.4783,2.4783,0,0,1,1.0489-.0959,2.5485,2.5485,0,0,1,1.4225.5345,1.7521,1.7521,0,0,1,.5741,1.2721Z" fill="#fff1e7"/><path d="M69.83,37.4134l1.27-6.3545.5935.119L71.21,33.5957a3.781,3.781,0,0,1,.8468-.3987,1.8971,1.8971,0,0,1,.9587-.03,2.6982,2.6982,0,0,1,.8518.3223,1.5165,1.5165,0,0,1,.5819.6442,1.1,1.1,0,0,1,.1207.5522,4.1385,4.1385,0,0,1-.0737.55l-.5982,2.9919-.5935-.119.5961-2.9831a1.2858,1.2858,0,0,0-.1225-.9879,1.4265,1.4265,0,0,0-.957-.5128,1.7139,1.7139,0,0,0-.52-.0258,1.6909,1.6909,0,0,0-.4506.1163,1.4589,1.4589,0,0,0-.3681.2205,1.2638,1.2638,0,0,0-.2646.2957,1.5888,1.5888,0,0,0-.1939.4015c-.0406.1331-.0762.2779-.1081.4375l-.4917,2.4616Z" fill="#fff1e7"/><path d="M79.4726,39.0686l2.46-3.3728.5894.1794-2.9789,3.9674-.6176-.1878.0459-4.078-.0184-.0053L76.7042,38.98l-.6952-.2108-.1711-4.9251.58.1763.1383,4.1988L78.87,34.7661l.6477.1962Z" fill="#fff1e7"/><path d="M82.8807,38.7a2.2745,2.2745,0,0,0-.1718.7028,1.663,1.663,0,0,0,.0779.6667,1.5725,1.5725,0,0,0,.356.5764,1.8709,1.8709,0,0,0,.6514.4316,1.8059,1.8059,0,0,0,1.0484.1346,1.3373,1.3373,0,0,0,.8266-.5143l.6244.2592a2.7713,2.7713,0,0,1-.507.4581,1.96,1.96,0,0,1-1.3329.3365,2.89,2.89,0,0,1-.8459-.2245,2.8,2.8,0,0,1-.9248-.59,2.0266,2.0266,0,0,1-.4911-.7636,2.1155,2.1155,0,0,1-.104-.8821,3.1657,3.1657,0,0,1,.238-.9389,2.7479,2.7479,0,0,1,.5239-.8249,2.3584,2.3584,0,0,1,.74-.5453,2.1778,2.1778,0,0,1,.8986-.2014,2.5117,2.5117,0,0,1,1.0064.209,2.2079,2.2079,0,0,1,1.3122,1.2621,2.6934,2.6934,0,0,1-.1792,2.0076Zm3.3236.8957a1.9607,1.9607,0,0,0,.15-.6359,1.4262,1.4262,0,0,0-.4343-1.1258,1.8436,1.8436,0,0,0-.6116-.3948,1.737,1.737,0,0,0-.7087-.15,1.6276,1.6276,0,0,0-.6232.13,1.776,1.776,0,0,0-.522.3493,2.1632,2.1632,0,0,0-.4.5148Z" fill="#fff1e7"/><path d="M86.688,42.78,88.76,38.6042l.5427.2684L87.2308,43.049Zm2.4964-5.1.3563-.7178.5964.2958-.3557.7169Z" fill="#fff1e7"/><path d="M88.0457,43.4115l.2414-.4124L93.1715,41.53l-2.7969-1.6367.2273-.3882,3.4672,2.03-.241.4124-4.8844,1.468,3.1108,1.82-.2278.3883Z" fill="#fff1e7"/><path d="M32.859,71.0991c.771-.935,1.6087-.08,2.1327-1.448.3012-.31.8269.5689,1.3.0943.3441.2639.9138.9372,1.2962.3325-.0849-.3136.4948.006.5742-.316.4276-.1618.6095-.9118,1.1651-.6684.1473-.1447-.083-.8229.4963-.73.2825-.5222,1.6717.5827,1.2058-.7713.6983-.9844.8554.4417,1.62.287.5463-.0163,1.4956-.5377,1.62.2788.6349.4085.6984.2164.82,1.0012.43.98.7162-.6288,1.3374-.1684.4474.3508.7352.9153,1.2511.34.4568.1546.9051.3753,1.2634.2216a2.9945,2.9945,0,0,1,.7919-2.5553c1.0014-.1455,2.0831.1259,2.551-.7017-.009-.361-.0057-.81.5087-.9554a2.1647,2.1647,0,0,1,.0125-1.9526c2.2344-.095,1.4057-1.028,2.6576-1.3129.2681-.56.0416-1.0606.4682-1.5253-.4224-.898-.9874-1.5766-1.3216-2.3134-.8595-.14-.7485-.5191-.0978-1.05,1.4074-1.65,1.7282.5551,3.1006-2.092.5779-.0108.6529-.3549.7055-.853.6414-.0344,1.3583-.44,1.206-1.1567-1.1743-.5057-.1674-.7444.55-1.2305a3.7765,3.7765,0,0,1,2.6086-1.0093,1.3029,1.3029,0,0,1,.2786,1.1815c-.2069.3364.3523.43.0988.7466-.0155.7889.2713,1.9925-.1966,2.7811-1.2584.9.3137,1.7429-.328,2.5267a3.6909,3.6909,0,0,0,2.1407,1.214c.4755,1.5419,1.6483,1.973,1.9277,3.3307.8994-.1659,1.5464.7792,2.4777.8612.3132-1.451.86-.1333,1.5749.0987,3.2493-.1561.5583,2.2313.1309,3.6748,2.35-.0182,4.3027,3.35,2.9541,5.316,1.7469-1.0658,2.5545,2.0183,3.3466-1.0665,1.0737-1.0146.7881-2.0539-.7384-2.1986-.0458-.5881-.0616-1.2658-.7874-1.4926,1.911-1.204.0723-1.3427.7543-2.4778.5-.9038,2.488-.6939,1.247-2.5432,1.2027-.5671,1.7882-1.6678,2.9538-2.1325.0343-.6958.4851-1.9181,1.2631-1.8379-.256-1.5979,2.1409-3.2955.8372-4.3643-.2737-.5887.0251-1.2744-.0495-1.8867-.285-.3159-.9468-.5278-.7873-1.1814,1.0193-.1788.4765-1.0724.8118-1.7392a3.5689,3.5689,0,0,1,2.1987-.23c-.2667.5054.2713.8248.5907,1.1734.6615.3386.559-.66.8531-.9846.6936-.7416,1.0305.3626.3529.4843.59.2434.1974.8433.2377,1.5012.0556.9725-.1612,2.4331.894,2.65.385.6984.5736,1.6666,1.2965,2.1658.6772-.2809,1.827,1.0744,2.6415.2049.6243-.3381,1.2736.713,1.5177-.4922-.1086-2.7745.6969-.2246,1.9441-1.2632.82-.3145,2.4964-1.6691,2.8549-.6565.5964-1.1835.8148.3852,1.5586.4515.3949.1841-.2171.7341-.2458,1.0418.3307.2934.6852.54.2789.9106.1771.8835,1.7173.52,1.6488,1.6572-.797.9927.23,1.0456,1.0172.6887.73.49,1.8062-.6993,1.6412-1.304-.94-1.9129-2.6522-2.05-.5828-4.1758.5288.2333.4028-.67.3283-.91-.4378-.0426-.2814-.4352-.7714-.6482-.9562.4656-1.3008.4633-1.9359-.3692-.6412-.0643.2976-.59.0737-.8776-.3474-.4134.0545-.91-.1885-1.2553a1.657,1.657,0,0,0,.0568-1.3782c.5289.0369.548-.5749.9357-.7875-.438-.51.3753-.1945.3773-.6482-.3833-1.2517.6125-.4724,1.28-1.0417.58-.5651,1.49.1769,1.6735-.5165.6339-.4165.87.9352.41,1.41.0022,1.0108,1.017.0493,1.2961,1.0586-.1652.4026.5042.4723.722.246.1293.3565.65.3253.5905-.14a1.555,1.555,0,0,1,1.1076.4185.49.49,0,0,1,.8529.0657c1.2086,1.1143,1.0747-1.8419,1.4194-2.543-1.04-1.4535-2.1538-.0854-2.412-1.5586-.3123-.9983.122-1.2008.583-1.846-.2563-.6842-.3407-1.156.6152-1.3784.2284-.6726-.5193-1.0868-.2958-1.5586.8418.0672.4489-1.1811.8859-1.3291a18.0064,18.0064,0,0,1,.5339-3.6422c-.51-.4275-1.8625-.4155-1.4689-1.2632-.4679-.1526-.6867-1.2078-1.1567-.7058-.2684.3123-.9521-.0307-.9267.6155a4.3584,4.3584,0,0,1-.7472,1.1973c.4937,1.2276-.7538.5154-1.624.4186a7.941,7.941,0,0,0-.2046,2.2725c-.8359-.1927-1.02.3742-1.6575.55-.38-.0882-1.23.4774-1.5013.14-.2647-.4388-.3982-.6179-1.001-.517a4.2339,4.2339,0,0,0-.9517-1.3946.7146.7146,0,0,1-.9759-.5006c-.8987.4225-1.5219-.4263-2.3709-.681-.4032-.8961.4053-1.5627.1972-2.33-.7393-.1976.1732-.7491-.632-.7465-.7852.9772-1.6119-1-2.6743-.4921-.5166-.4173-1.2142-.2826-1.5915-.87a4.6639,4.6639,0,0,1-2.1166.1636c-.8909.6135-1.4456-.8119-2.5759.28-.7822-.485.1931-.8565.763-1.3375-1.2655-4.8414.0061-5.1248,2.0023-9.1387.33-.8983,1.8785-.4711,1.7713-1.5751-1.381-.902.3657-2.7128-1.887-2.5105-1.7471-4.5278-9.9546-9.2585-15.0289-7.1871-2.1674,1.0279-1.753.669-2.7173-.7212.2812-.3538-.3008-.3419.2419-.4366.1691.1158-.1695.259.1518.1619.3085.0757-.0247-.2716.045-.3137-.0134-.2951-.725.23-.6171-.2976-.2516-.2-.448.0888-.6359-.0818.4857-.21-.6061-.3259-.201-.5231-.0656-.1505-.0643-.4842-.3363-.2233.1273.4151-.0451.1117-.24.2849-.9521.7754-.0073.5712.5641,1.171-1.0425,1.2592-.469.011-1.9526.0328-.1724-.434.4763-.9224-.1691-1.0386-.5623-.2876.0489-.9333.4851-.9423-.7826-1.5684-1.2255.89-1.454-1.3641-.4084.0869-.4673-.2353-.5764-.4942-.5239.2428.0013.9417-.2217,1.2016-.6966.7265-.503-.2456-.7627-.5781-.0384-.1951.3177-.3411.0594-.4617-.0556-.5227-.92.02-.9988-.1988-.2428-.425-.361-.0411-.3393.3211.3368.0772.5362.4611.0275.524.1-.6008-1.4037.3017-1.6284.2539-.4331-.197-1.3544,1.2254-.9149,1.4439-.1651.5521-1.7894.731-.8609,1.649-.9724.3325.6882,1.243,1.0268.971.1-.1654-.0212.9376.3049.566-.2483-.1343.1513-.0677-.0809-.3166.2285-.0966.2411.2349.4185.247.1229-.0689.0945-.2174.3887-.1608.2292-.0955.5562.2443.6623-.1016a1.0382,1.0382,0,0,1-.1815-.3845c.1587-.2654.4477.4738.2791-.0861.3235-.3666.6346-.1885.9288.0535.54-.3326.5373-.4939.89-.0018.663.2217.0857,1.215-.2769.734.3478.098.3128-.5654.0145-.3571-.4744.5854.4155,1.5011-.4676,1.8109-.0217.2364-.471.1123-.5434-.0532.0407-.1521.3443-.4179.236-.4a1.8877,1.8877,0,0,0-1.3147-.7447c-.1728.62-1.0243.9414-1.4192,1.1119.0408.5229.26.7733.7628.5166.4169.4449-.8516.4864-1.1648.6974-1.018-.42-3.4189.7091-3.4252-1.3537-.4918-.2433-1.258-.4386-1.69.0328-.0355-.25-.2562-.7468-.6071-.533-.6267.99-1.4951.9923-2.33,1.5092.0761,1.3242-.9.0642-1.3044.7794-.69.294-1.39-.03-2.1165-.0654-.6142.9379-1.3227.26-1.2549-.6565-.372-.9041-1.2575-.0437-1.764-.3442-.5937-.2628-.3889.6716-.8286.8364-1.0508.8261-3.61,1.5431-3.8351-.0287.2574.28.4809-.1424.767-.1025.2049.24.08-.03.1969-.1271.5323.3147.0927-.4567-.1671-.63.5951-.5974.55-.431-.1057-.1662-.7556-.6152-1.0886,1.2872-1.651.1525-.5513-.2741.0626.4594-.9887.5289.0745.608-1.1088.778-1.3717,1.1879-.1848.8275,1.0075-.2911.6727.6153-.1431.129-.046.2565-.2011.2481-.1415-.2961-.4122.2391-.4635-.2042-.1027.1335.3675.5477.2643.8195-.9269,1.5192-1.6769-.9026-2.141.6109,1.679-.06-.0705,1.2244-.6069,1.5837-.8374.35-1.7162-.5718-2.453.0737-.8248.0889-.9948.8053-1.542-.23-1.4383.7738-1.6829-1.27-.6237-1.8292-.0991-.3131-.6833.2067-.9764.0408-.5893-.7662-1.3574-.1619-2.0673.0822-1.4753-1.0256-2.5886-.3241-1.87,1.0994.3538.3838-.4994.2222-.6568.4019.0316.4758-.3839.3514-.6727.4267.324.8347-.4461.9172-.5582,1.0661-.0079.4909-1.3371,1.3609-.7383,1.7313a32.3981,32.3981,0,0,0,3.298-.5421c.7232.1062,1.3458,1.5433.0411,1.5224-.8987-.04.5149,1.2162-1.7393,1.1936-.5673.1267-.0117.5927-.09.9435.04.3128-.1858.5259.1232.7916a9.6357,9.6357,0,0,0-2.1906,2.2109c-.2812.2126-.9156.4578-.1145.5333A4.88,4.88,0,0,1,22.7973,27.78c-1.9011.7553.2136.7465-1.7023,1.4067-.2757.1339.0843.4832-.3983.5824.2164.4223.9965.4225.3326.8042a3.03,3.03,0,0,0-1.71,1.6083c-.7588.31-1.5144.4744-2.2974.8694-.6168.2985-1.0193-.1514-1.4028.3688-2.0866,1.8857.7265,2.36-.9355,4.8321-.454.8835.5084.91.2962,1.6-.1557.6268-.7948.8968-1.4117,1.0828-.1209.2466.0224.6837-.443.5744A50.33,50.33,0,0,0,6.8,46.915c2.1346,1.3457.0391,1.5535-.3037,3.29-.9385.4474-.069,1.1918-.5491,1.7145-.6535,1.2388,3.9156,1.6163,1.55,3.1953.05.4109-.65.861-.4119,1.4048-.0751.207-.4626.2633-.4.5517.6964,1.3292.501,1.6648-1.0007,1.288-.1788.0823-.2828.3536-.4018.4963-.0274-.2007-.4455-.3046-.5-.07a.7345.7345,0,0,0-.5211.3691c-.0975.1762-.2981-.1585-.2915.09.21.3019-.3009-.0135-.4018.1681-.1469.118-.0174.4633-.1065.4676-.531.4128,1.1759.3606.4217,1.0789-.3682-.2155-.3989,1.18-.7582,1.3083.2295.3247.5728-.2408.7424-.3549.2392-.0011.9714-.1055,1.1607.2606.2648-.293.4686-.732.9517-.4757.371-.2065,1.0434.5306,1.46.18a2.4382,2.4382,0,0,0,1.4189-1.3867c.626-.825,1.57-.77,2.3794-1.4272.2732-.25.4972-1.2034.156-1.0173-.3794.0109.0083-.638-.3447-.123-.5064.7224-.8279-.119-1.2057-.64.54-.637.33-.9267-.4187-1.2141.8191-4.2446,14.16-7.4557,13.9224-2.7158.4334.7543-.8784.6649-.7391,1.313.4376.6334.5231.9848,1.1567,1.2717a2.4855,2.4855,0,0,0,1.0176,1.0251c.0717,1.164-1.0142,1.7616-1.4194,2.8388.5357,1.5581-1.4886,2.2225,1.1568,2.666,1.0132-.076,1.39.1987.7545,1.0667.5864.4772-.9082,2.048.2216,1.6737.495-.0492.5946-.6.9844-.6567a6.7444,6.7444,0,0,0,1.14,1.6164c-.0826.7065.8174.5029.7387,1.0826.5842.3913-.6729.8708.5989,1.1076-.158.9471.6456,1.5822.9474,2.2314.46.3362.2966,1.2164.9924,1.0686C32.033,69.8817,32.55,72.851,32.859,71.0991Z" fill="none" stroke="#282825" stroke-linejoin="round" stroke-width="0.7"/></svg>