<svg id="Layer_1" data-name="Layer 1" xmlns="http://www.w3.org/2000/svg" viewBox="0 0 50.51 62.88"><path d="M15.27,1.45l-.68-.13V.69H16l.81,0,.27,0h.38A5.18,5.18,0,0,1,19,.81a1.44,1.44,0,0,1,.78.51,1.48,1.48,0,0,1,.22.84,1.57,1.57,0,0,1-.42,1.12,1.77,1.77,0,0,1-1.07.53,2.24,2.24,0,0,1,1.42.4,1.36,1.36,0,0,1,.52,1.15,1.9,1.9,0,0,1-.66,1.52,3.53,3.53,0,0,1-2.25.55h-.82c-.21,0-.45,0-.7,0H14.57V6.79l.7-.1ZM17.52,3.6a.82.82,0,0,0,.73-.34,1.69,1.69,0,0,0,.23-.95,1.13,1.13,0,0,0-.25-.82,1.08,1.08,0,0,0-.82-.27l-.32,0-.3,0V3.58C16.9,3.59,17.14,3.6,17.52,3.6Zm0,3.21a1.21,1.21,0,0,0,1-.35,1.51,1.51,0,0,0,.3-1,1.23,1.23,0,0,0-.28-.89,1.19,1.19,0,0,0-.88-.27h-.82V6.74A2.19,2.19,0,0,0,17.5,6.81Z" fill="#f04d25"/><path d="M21.59,6.78A2.86,2.86,0,0,1,21,4.88a2.94,2.94,0,0,1,.31-1.41,2.14,2.14,0,0,1,.85-.91,2.62,2.62,0,0,1,1.31-.31,2,2,0,0,1,1.44.48,1.85,1.85,0,0,1,.52,1.35,4.48,4.48,0,0,1-.08.92H22.53a2,2,0,0,0,.37,1.17,1.13,1.13,0,0,0,.93.4,2.48,2.48,0,0,0,.69-.11,2.35,2.35,0,0,0,.59-.26l.25.55a2.29,2.29,0,0,1-.79.5,3.1,3.1,0,0,1-1.15.23A2.27,2.27,0,0,1,21.59,6.78ZM24,4.41V4a1.93,1.93,0,0,0-.16-.86.53.53,0,0,0-.52-.3.64.64,0,0,0-.58.33,2.5,2.5,0,0,0-.23,1.21Z" fill="#f04d25"/><path d="M26.09,6.79l.55-.08V3.32l-.53-.16v-.7l1.5-.2h0l.25.19v.21l0,.75h0a1.61,1.61,0,0,1,.29-.48,2.27,2.27,0,0,1,.57-.48,1.54,1.54,0,0,1,.76-.2.9.9,0,0,1,.36.06V3.88a1.23,1.23,0,0,0-.32-.17,1.25,1.25,0,0,0-.42-.06,1.83,1.83,0,0,0-.59.08,1.76,1.76,0,0,0-.41.19V6.71l1,.09v.58h-3Z" fill="#f04d25"/><path d="M30.91,3.32l-.53-.16v-.7L32,2.26h0l.24.19V3a2.62,2.62,0,0,1,.8-.51,2.69,2.69,0,0,1,1-.2,1.62,1.62,0,0,1,.85.19,1.15,1.15,0,0,1,.45.62,3.86,3.86,0,0,1,.14,1.15V6.71l.5.07v.6H33.58V6.79L34,6.71V4.25A2.88,2.88,0,0,0,34,3.58a.57.57,0,0,0-.2-.35.67.67,0,0,0-.41-.11,1.64,1.64,0,0,0-.94.39v3.2l.5.08v.59h-2.5V6.79l.5-.08Z" fill="#f04d25"/><path d="M25.26,57.66a.5.5,0,0,1-.5-.5V11.23a.5.5,0,0,1,.5-.5.51.51,0,0,1,.5.5V57.16A.5.5,0,0,1,25.26,57.66Z" fill="#f04d25"/><circle cx="25.26" cy="57.16" r="2.12" fill="#f04d26"/></svg>