<svg id="Layer_1" data-name="Layer 1" xmlns="http://www.w3.org/2000/svg" viewBox="0 0 50.51 62.88"><path d="M5.58,7A2.83,2.83,0,0,1,4.49,5.83a3.9,3.9,0,0,1-.37-1.74A3.94,3.94,0,0,1,4.54,2.2,2.78,2.78,0,0,1,5.75,1,4.19,4.19,0,0,1,7.62.61,8.38,8.38,0,0,1,8.85.7c.41.06.76.12,1,.19L9.78,2.63H8.7L8.45,1.44a.76.76,0,0,0-.29-.16,2.24,2.24,0,0,0-.58-.06,1.39,1.39,0,0,0-1.24.7A3.93,3.93,0,0,0,5.9,4a5.09,5.09,0,0,0,.37,2.11,1.23,1.23,0,0,0,1.17.78A1.83,1.83,0,0,0,8,6.77a.89.89,0,0,0,.4-.22V4.67l-.84-.09V3.92H10.4v.66L10,4.65V7a6.09,6.09,0,0,0-.71.14c-.37.1-.7.18-1,.23a4.69,4.69,0,0,1-.94.09A3.27,3.27,0,0,1,5.58,7Z" fill="#f04d25"/><path d="M11.32,3.44a2.25,2.25,0,0,1,.92-.89,2.74,2.74,0,0,1,1.28-.3,2.34,2.34,0,0,1,1.77.68,2.63,2.63,0,0,1,.65,1.89,2.93,2.93,0,0,1-.35,1.49,2.09,2.09,0,0,1-.91.88,2.91,2.91,0,0,1-1.29.29,2.34,2.34,0,0,1-1.77-.68A2.63,2.63,0,0,1,11,4.9,2.89,2.89,0,0,1,11.32,3.44Zm2.8,2.95a3.78,3.78,0,0,0,.21-1.46,4.29,4.29,0,0,0-.2-1.55.7.7,0,0,0-.68-.5c-.59,0-.88.64-.88,1.92a4,4,0,0,0,.22,1.54.72.72,0,0,0,.69.51A.69.69,0,0,0,14.12,6.39Z" fill="#f04d25"/><path d="M17.2.88,16.57.76V.22L18.37,0h0l.26.19V6.71l.59.08v.59H16.62V6.79l.58-.08Z" fill="#f04d25"/><path d="M20.28,6.86A2.79,2.79,0,0,1,19.74,5a3.17,3.17,0,0,1,.31-1.38,2.53,2.53,0,0,1,.92-1,2.77,2.77,0,0,1,1.47-.37,2.48,2.48,0,0,1,.54.06V.88L22.12.76V.18l2-.18h0l.27.22V6.78h.47v.57a6.23,6.23,0,0,1-1.15.14.8.8,0,0,1-.46-.11c-.09-.06-.13-.2-.13-.4V6.76a1.73,1.73,0,0,1-.63.52,1.88,1.88,0,0,1-.83.2A1.79,1.79,0,0,1,20.28,6.86Zm2.39-.29A1,1,0,0,0,23,6.32V3.06a.53.53,0,0,0-.23-.14,1.34,1.34,0,0,0-.35,0,.9.9,0,0,0-.8.48,3.1,3.1,0,0,0-.3,1.57,2.63,2.63,0,0,0,.25,1.32.76.76,0,0,0,.68.43A1.05,1.05,0,0,0,22.67,6.57Z" fill="#f04d25"/><path d="M25.12.22,26.89,0h0l.29.18V2.81a1.72,1.72,0,0,1,.57-.4,1.66,1.66,0,0,1,.73-.16,1.76,1.76,0,0,1,1.4.61,2.72,2.72,0,0,1,.54,1.86,3,3,0,0,1-.33,1.41,2.49,2.49,0,0,1-.94,1,2.79,2.79,0,0,1-1.43.36,5.93,5.93,0,0,1-1.3-.12,2.76,2.76,0,0,1-.68-.22V.86L25.12.74Zm2.4,3a1.16,1.16,0,0,0-.32.24V6.72c0,.06.09.11.2.15a1.46,1.46,0,0,0,.38,0,.9.9,0,0,0,.8-.53,3.26,3.26,0,0,0,.3-1.57,2.6,2.6,0,0,0-.25-1.28.79.79,0,0,0-.69-.41A1,1,0,0,0,27.52,3.23Z" fill="#f04d25"/><path d="M31.79,4.73a4.58,4.58,0,0,1,2.12-.44V4.11a1.46,1.46,0,0,0-.07-.51.51.51,0,0,0-.26-.28,1.22,1.22,0,0,0-.56-.1,2.69,2.69,0,0,0-.79.11,5,5,0,0,0-.72.27L31.2,3a2.73,2.73,0,0,1,.47-.28,3.89,3.89,0,0,1,1.73-.41,2.71,2.71,0,0,1,1.13.19,1.13,1.13,0,0,1,.58.58,2.7,2.7,0,0,1,.18,1.08V6.79h.46v.56l-.57.09a5.6,5.6,0,0,1-.63,0,.72.72,0,0,1-.46-.1A.56.56,0,0,1,34,7v-.2a2.11,2.11,0,0,1-.6.48,1.75,1.75,0,0,1-.87.21,1.52,1.52,0,0,1-.77-.19,1.28,1.28,0,0,1-.55-.53A1.54,1.54,0,0,1,31,5.94,1.31,1.31,0,0,1,31.79,4.73Zm1.78,1.83a1.69,1.69,0,0,0,.34-.23V4.9a1.71,1.71,0,0,0-1,.25.76.76,0,0,0-.34.65,1,1,0,0,0,.18.63.61.61,0,0,0,.5.22A.87.87,0,0,0,33.57,6.56Z" fill="#f04d25"/><path d="M36.47,3.51a2.24,2.24,0,0,1,.9-.93,2.7,2.7,0,0,1,1.35-.33,3.66,3.66,0,0,1,1.22.19l.32.08L40.2,4.15h-.91l-.23-1A.24.24,0,0,0,38.91,3a.65.65,0,0,0-.29-.05.75.75,0,0,0-.67.41,3.09,3.09,0,0,0-.23,1.38A2.74,2.74,0,0,0,38,6.1a.93.93,0,0,0,.81.49,2.4,2.4,0,0,0,1.23-.34l.24.53a2.12,2.12,0,0,1-.71.47,2.64,2.64,0,0,1-1.1.23,2.14,2.14,0,0,1-1.76-.7,2.81,2.81,0,0,1-.59-1.87A2.87,2.87,0,0,1,36.47,3.51Z" fill="#f04d25"/><path d="M41.35.88,40.71.76V.22L42.52,0h0l.26.19v2l-.07.8a2.47,2.47,0,0,1,.74-.46,2.35,2.35,0,0,1,1-.2,1.73,1.73,0,0,1,.89.2,1.13,1.13,0,0,1,.44.63,4.33,4.33,0,0,1,.12,1.13V6.71l.55.08v.59H44V6.79l.48-.08V4.25a2,2,0,0,0-.14-.88.58.58,0,0,0-.55-.25,1.15,1.15,0,0,0-.5.12,1.27,1.27,0,0,0-.42.27v3.2l.49.08v.59H40.88V6.79l.47-.08Z" fill="#f04d25"/><path d="M25.26,57.66a.5.5,0,0,1-.5-.5V11.23a.5.5,0,0,1,.5-.5.51.51,0,0,1,.5.5V57.16A.5.5,0,0,1,25.26,57.66Z" fill="#f04d25"/><circle cx="25.26" cy="57.16" r="2.12" fill="#f04d26"/></svg>