<svg id="Layer_1" data-name="Layer 1" xmlns="http://www.w3.org/2000/svg" viewBox="0 0 50.51 62.88"><path d="M6,1.45l-.68-.13V.69H8.39v.63l-.85.13V6.68l1.69-.09.58-1.78.85.1L10.4,7.38H5.3V6.79L6,6.7Z" fill="#f04d25"/><path d="M14.73,7.33a.53.53,0,0,1-.15-.41v-.2a1.77,1.77,0,0,1-.65.53,1.83,1.83,0,0,1-.87.23A1.55,1.55,0,0,1,11.81,7a2.24,2.24,0,0,1-.38-1.46V3.08L11,3V2.38l1.69-.11h0l.2.12V5.62a1.69,1.69,0,0,0,.14.81.58.58,0,0,0,.52.23,1.14,1.14,0,0,0,.84-.34V3.08l-.56-.14V2.38l1.79-.11h0l.22.12V6.76h.48v.58l-.57.09a3.54,3.54,0,0,1-.6,0A.65.65,0,0,1,14.73,7.33Z" fill="#f04d25"/><path d="M18.06,6.63a.52.52,0,0,0,.29.18,1.24,1.24,0,0,0,.46.08.87.87,0,0,0,.56-.15.51.51,0,0,0,.2-.41.55.55,0,0,0-.25-.45,5.43,5.43,0,0,0-.83-.43l-.34-.15a2.17,2.17,0,0,1-.88-.63A1.47,1.47,0,0,1,17,3.72,1.24,1.24,0,0,1,17.22,3a1.64,1.64,0,0,1,.7-.51A2.78,2.78,0,0,1,19,2.27a5.32,5.32,0,0,1,.75,0c.21,0,.42.08.64.14l.32.07V3.75h-.8l-.23-.69a.52.52,0,0,0-.22-.15,1.13,1.13,0,0,0-.39-.07.91.91,0,0,0-.54.15.48.48,0,0,0-.19.4.53.53,0,0,0,.22.46,4.31,4.31,0,0,0,.72.39l.19.08A4,4,0,0,1,20.61,5,1.21,1.21,0,0,1,21,6a1.34,1.34,0,0,1-.53,1.09,2.45,2.45,0,0,1-1.57.43,4.31,4.31,0,0,1-.85-.08l-.81-.2L17,7.12V5.92h.85Z" fill="#f04d25"/><path d="M22.09.88,21.45.76V.22L23.26,0h0l.26.19v2l-.08.8a2.76,2.76,0,0,1,.74-.46,2.4,2.4,0,0,1,1-.2,1.66,1.66,0,0,1,.88.2,1.09,1.09,0,0,1,.44.63,3.89,3.89,0,0,1,.13,1.13V6.71l.55.08v.59h-2.5V6.79l.47-.08V4.25a2,2,0,0,0-.13-.88.59.59,0,0,0-.55-.25,1.19,1.19,0,0,0-.51.12,1.51,1.51,0,0,0-.42.27v3.2l.5.08v.59H21.62V6.79l.47-.08Z" fill="#f04d25"/><path d="M31.37,7.33a.53.53,0,0,1-.15-.41v-.2a1.77,1.77,0,0,1-.65.53,1.83,1.83,0,0,1-.87.23A1.57,1.57,0,0,1,28.45,7a2.24,2.24,0,0,1-.38-1.46V3.08L27.65,3V2.38l1.69-.11h0l.2.12V5.62a1.69,1.69,0,0,0,.14.81.58.58,0,0,0,.52.23,1.14,1.14,0,0,0,.84-.34V3.08l-.56-.14V2.38l1.79-.11h0l.22.12V6.76H33v.58l-.57.09a3.54,3.54,0,0,1-.6,0A.65.65,0,0,1,31.37,7.33ZM28.53,1.39a.76.76,0,0,1-.18-.51,1,1,0,0,1,.19-.61.71.71,0,0,1,.57-.22.65.65,0,0,1,.52.19.78.78,0,0,1,.17.51q0,.84-.78.84A.62.62,0,0,1,28.53,1.39Zm2.23,0a.77.77,0,0,1-.18-.5,1,1,0,0,1,.19-.61.71.71,0,0,1,.57-.22.69.69,0,0,1,.53.19A.78.78,0,0,1,32,.75q0,.84-.78.84A.63.63,0,0,1,30.76,1.38Z" fill="#f04d25"/><path d="M34.22,7.19a1.15,1.15,0,0,1-.29-.85V3.13h-.55V2.61l.18-.07a2.29,2.29,0,0,0,.38-.16,1.17,1.17,0,0,0,.29-.44,8.79,8.79,0,0,0,.3-.91h.83l.06,1.35H36.7v.75H35.44V5.52a5.88,5.88,0,0,0,0,.69.37.37,0,0,0,.11.26.46.46,0,0,0,.28.06,2.15,2.15,0,0,0,.8-.15l.19.57a2.18,2.18,0,0,1-.75.36,3.41,3.41,0,0,1-1,.15A1.21,1.21,0,0,1,34.22,7.19Z" fill="#f04d25"/><path d="M37.89,7.19a1.15,1.15,0,0,1-.29-.85V3.13h-.55V2.61l.18-.07a2.29,2.29,0,0,0,.38-.16,1.17,1.17,0,0,0,.29-.44A8.79,8.79,0,0,0,38.2,1H39l.06,1.35h1.29v.75H39.11V5.52c0,.33,0,.56,0,.69a.42.42,0,0,0,.11.26.46.46,0,0,0,.28.06,2.15,2.15,0,0,0,.8-.15l.19.57a2.18,2.18,0,0,1-.75.36,3.41,3.41,0,0,1-1,.15A1.23,1.23,0,0,1,37.89,7.19Z" fill="#f04d25"/><path d="M41.41,6.78a2.81,2.81,0,0,1-.59-1.9,3.06,3.06,0,0,1,.3-1.41A2.16,2.16,0,0,1,42,2.56a2.58,2.58,0,0,1,1.3-.31,2,2,0,0,1,1.45.48,1.84,1.84,0,0,1,.51,1.35,3.87,3.87,0,0,1-.08.92H42.35a2,2,0,0,0,.37,1.17,1.12,1.12,0,0,0,.92.4,2.62,2.62,0,0,0,1.29-.37l.25.55a2.29,2.29,0,0,1-.79.5,3.1,3.1,0,0,1-1.15.23A2.27,2.27,0,0,1,41.41,6.78Zm2.4-2.37V4a2,2,0,0,0-.15-.86.54.54,0,0,0-.52-.3.67.67,0,0,0-.59.33,2.53,2.53,0,0,0-.22,1.21Z" fill="#f04d25"/><path d="M25.26,57.66a.5.5,0,0,1-.5-.5V11.23a.5.5,0,0,1,.5-.5.51.51,0,0,1,.5.5V57.16A.5.5,0,0,1,25.26,57.66Z" fill="#f04d25"/><circle cx="25.26" cy="57.16" r="2.12" fill="#f04d26"/></svg>